<svg xmlns="http://www.w3.org/2000/svg" width="280" height="280" fill="none" viewBox="0 0 280 280"><rect width="20" height="20" fill="#24F2FF" transform="matrix(-1 0 0 1 180 0)"/><rect width="20" height="20" fill="#24F2FF" transform="matrix(-1 0 0 1 180 20)"/><rect width="20" height="20" fill="#24F2FF" transform="matrix(-1 0 0 1 180 60)"/><rect width="20" height="20" fill="#24F2FF" transform="matrix(-1 0 0 1 180 80)"/><rect width="20" height="20" fill="#24F2FF" transform="matrix(-1 0 0 1 200 80)"/><rect width="20" height="60" fill="#24F2FF" transform="matrix(-1 0 0 1 220 40)"/><rect width="20" height="60" fill="#24F2FF" transform="matrix(-1 0 0 1 280 60)"/><rect width="20" height="60" fill="#24F2FF" transform="matrix(-1 0 0 1 260 80)"/><rect width="20" height="20" fill="#24F2FF" transform="matrix(-1 0 0 1 200 0)"/><rect width="20" height="20" fill="#24F2FF" transform="matrix(-1 0 0 1 220 0)"/><rect width="20" height="20" fill="#24F2FF" transform="matrix(-1 0 0 1 220 20)"/><rect width="20" height="20" fill="#24F2FF" transform="matrix(-1 0 0 1 240 0)"/><rect width="20" height="20" fill="#24F2FF" transform="matrix(-1 0 0 1 240 20)"/><rect width="20" height="20" fill="#24F2FF" transform="matrix(-1 0 0 1 260 20)"/><rect width="20" height="20" fill="#24F2FF" transform="matrix(-1 0 0 1 260 40)"/><rect width="20" height="20" fill="#24F2FF" transform="matrix(-1 0 0 1 240 120)"/><rect width="20" height="20" fill="#24F2FF" transform="matrix(-1 0 0 1 180 140)"/><rect width="20" height="20" fill="#24F2FF" transform="matrix(-1 0 0 1 180 160)"/><rect width="20" height="20" fill="#24F2FF" transform="matrix(-1 0 0 1 200 160)"/><rect width="20" height="20" fill="#24F2FF" transform="matrix(-1 0 0 1 240 160)"/><rect width="20" height="20" fill="#24F2FF" transform="matrix(-1 0 0 1 240 180)"/><rect width="20" height="20" fill="#24F2FF" transform="matrix(-1 0 0 1 240 200)"/><rect width="20" height="20" fill="#24F2FF" transform="matrix(-1 0 0 1 220 200)"/><rect width="20" height="20" fill="#24F2FF" transform="matrix(-1 0 0 1 200 200)"/><rect width="20" height="20" fill="#24F2FF" transform="matrix(-1 0 0 1 180 200)"/><rect width="20" height="20" fill="#24F2FF" transform="matrix(-1 0 0 1 180 220)"/><rect width="20" height="20" fill="#24F2FF" transform="matrix(-1 0 0 1 200 240)"/><rect width="20" height="20" fill="#24F2FF" transform="matrix(-1 0 0 1 240 240)"/><rect width="20" height="20" fill="#24F2FF" transform="matrix(-1 0 0 1 260 240)"/><rect width="20" height="20" fill="#24F2FF" transform="matrix(-1 0 0 1 260 220)"/><rect width="20" height="20" fill="#24F2FF" transform="matrix(-1 0 0 1 280 220)"/><rect width="20" height="20" fill="#24F2FF" transform="matrix(-1 0 0 1 280 200)"/><rect width="20" height="20" fill="#24F2FF" transform="matrix(-1 0 0 1 240 260)"/><rect width="20" height="20" fill="#24F2FF" transform="matrix(-1 0 0 1 200 260)"/><rect width="20" height="20" fill="#24F2FF" transform="matrix(-1 0 0 1 180 260)"/><rect width="20" height="20" fill="#24F2FF" transform="matrix(-1 0 0 1 260 160)"/><rect width="20" height="20" fill="#24F2FF" transform="matrix(-1 0 0 1 260 140)"/><rect width="20" height="20" fill="#24F2FF" transform="matrix(-1 0 0 1 280 160)"/><rect width="20" height="20" fill="#24F2FF" transform="matrix(-1 0 0 1 280 140)"/><rect width="60" height="20" fill="#24F2FF" transform="matrix(-1 0 0 1 220 120)"/><rect width="20" height="20" fill="#24F2FF" transform="matrix(-1 0 0 1 280 40)"/><rect width="20" height="20" x="100" fill="#24F2FF"/><rect width="20" height="20" x="100" y="20" fill="#24F2FF"/><rect width="20" height="20" x="100" y="60" fill="#24F2FF"/><rect width="20" height="20" x="100" y="80" fill="#24F2FF"/><rect width="20" height="20" x="80" y="80" fill="#24F2FF"/><rect width="20" height="60" x="60" y="40" fill="#24F2FF"/><rect width="20" height="60" y="60" fill="#24F2FF"/><rect width="20" height="60" x="20" y="80" fill="#24F2FF"/><rect width="20" height="20" x="80" fill="#24F2FF"/><rect width="20" height="20" x="60" fill="#24F2FF"/><rect width="20" height="20" x="60" y="20" fill="#24F2FF"/><rect width="20" height="20" x="40" fill="#24F2FF"/><rect width="20" height="20" x="40" y="20" fill="#24F2FF"/><rect width="20" height="20" x="20" y="20" fill="#24F2FF"/><rect width="20" height="20" x="20" y="40" fill="#24F2FF"/><rect width="20" height="20" x="40" y="120" fill="#24F2FF"/><rect width="20" height="20" x="100" y="140" fill="#24F2FF"/><rect width="20" height="20" x="100" y="160" fill="#24F2FF"/><rect width="20" height="20" x="80" y="160" fill="#24F2FF"/><rect width="20" height="20" x="40" y="160" fill="#24F2FF"/><rect width="20" height="20" x="40" y="180" fill="#24F2FF"/><rect width="20" height="20" x="40" y="200" fill="#24F2FF"/><rect width="20" height="20" x="60" y="200" fill="#24F2FF"/><rect width="20" height="20" x="80" y="200" fill="#24F2FF"/><rect width="20" height="20" x="100" y="200" fill="#24F2FF"/><rect width="20" height="20" x="100" y="220" fill="#24F2FF"/><rect width="20" height="20" x="80" y="240" fill="#24F2FF"/><rect width="20" height="20" x="40" y="240" fill="#24F2FF"/><rect width="20" height="20" x="20" y="240" fill="#24F2FF"/><rect width="20" height="20" x="20" y="220" fill="#24F2FF"/><rect width="20" height="20" y="220" fill="#24F2FF"/><rect width="20" height="20" y="200" fill="#24F2FF"/><rect width="20" height="20" x="40" y="260" fill="#24F2FF"/><rect width="20" height="20" x="80" y="260" fill="#24F2FF"/><rect width="20" height="20" x="100" y="260" fill="#24F2FF"/><rect width="20" height="20" x="20" y="160" fill="#24F2FF"/><rect width="20" height="20" x="20" y="140" fill="#24F2FF"/><rect width="20" height="20" y="160" fill="#24F2FF"/><rect width="20" height="20" y="140" fill="#24F2FF"/><rect width="60" height="20" x="60" y="120" fill="#24F2FF"/><rect width="20" height="20" y="40" fill="#24F2FF"/></svg>