<svg xmlns="http://www.w3.org/2000/svg" width="60" height="46" fill="none" viewBox="0 0 60 46"><rect width="2" height="2" fill="#000" transform="matrix(-1 0 0 1 34 10)"/><rect width="2" height="2" fill="#000" transform="matrix(-1 0 0 1 32 8)"/><rect width="2" height="2" fill="#000" transform="matrix(-1 0 0 1 32 12)"/><rect width="2" height="2" fill="#000" transform="matrix(-1 0 0 1 36 12)"/><rect width="2" height="2" fill="#000" transform="matrix(-1 0 0 1 36 8)"/><rect width="2" height="2" fill="#000" transform="matrix(-1 0 0 1 50 10)"/><rect width="2" height="2" fill="#000" transform="matrix(-1 0 0 1 48 8)"/><rect width="2" height="2" fill="#000" transform="matrix(-1 0 0 1 48 12)"/><rect width="2" height="2" fill="#000" transform="matrix(-1 0 0 1 52 12)"/><rect width="2" height="2" fill="#000" transform="matrix(-1 0 0 1 52 8)"/><rect width="2" height="2" fill="#000" transform="matrix(-1 0 0 1 42 10)"/><rect width="2" height="2" fill="#000" transform="matrix(-1 0 0 1 40 8)"/><rect width="2" height="2" fill="#000" transform="matrix(-1 0 0 1 40 12)"/><rect width="2" height="2" fill="#000" transform="matrix(-1 0 0 1 44 12)"/><rect width="2" height="2" fill="#000" transform="matrix(-1 0 0 1 44 8)"/><rect width="2" height="2" fill="#000" transform="matrix(-1 0 0 1 58 10)"/><rect width="2" height="2" fill="#000" transform="matrix(-1 0 0 1 56 8)"/><rect width="2" height="2" fill="#000" transform="matrix(-1 0 0 1 56 12)"/><rect width="2" height="2" fill="#000" transform="matrix(-1 0 0 1 60 12)"/><rect width="2" height="2" fill="#000" transform="matrix(-1 0 0 1 60 8)"/><rect width="2" height="2" fill="#000" transform="matrix(-1 0 0 1 34 2)"/><rect width="2" height="2" fill="#000" transform="matrix(-1 0 0 1 32 0)"/><rect width="2" height="2" fill="#000" transform="matrix(-1 0 0 1 32 4)"/><rect width="2" height="2" fill="#000" transform="matrix(-1 0 0 1 36 4)"/><rect width="2" height="2" fill="#000" transform="matrix(-1 0 0 1 36 0)"/><rect width="2" height="2" fill="#000" transform="matrix(-1 0 0 1 50 2)"/><rect width="2" height="2" fill="#000" transform="matrix(-1 0 0 1 48 0)"/><rect width="2" height="2" fill="#000" transform="matrix(-1 0 0 1 48 4)"/><rect width="2" height="2" fill="#000" transform="matrix(-1 0 0 1 52 4)"/><rect width="2" height="2" fill="#000" transform="matrix(-1 0 0 1 52 0)"/><rect width="2" height="2" fill="#000" transform="matrix(-1 0 0 1 42 2)"/><rect width="2" height="2" fill="#000" transform="matrix(-1 0 0 1 40 0)"/><rect width="2" height="2" fill="#000" transform="matrix(-1 0 0 1 40 4)"/><rect width="2" height="2" fill="#000" transform="matrix(-1 0 0 1 44 4)"/><rect width="2" height="2" fill="#000" transform="matrix(-1 0 0 1 44 0)"/><rect width="2" height="2" fill="#000" transform="matrix(-1 0 0 1 58 2)"/><rect width="2" height="2" fill="#000" transform="matrix(-1 0 0 1 56 0)"/><rect width="2" height="2" fill="#000" transform="matrix(-1 0 0 1 56 4)"/><rect width="2" height="2" fill="#000" transform="matrix(-1 0 0 1 60 4)"/><rect width="2" height="2" fill="#000" transform="matrix(-1 0 0 1 60 0)"/><rect width="2" height="2" fill="#000" transform="matrix(-1 0 0 1 4 26)"/><rect width="2" height="2" fill="#000" transform="matrix(-1 0 0 1 2 24)"/><rect width="2" height="2" fill="#000" transform="matrix(-1 0 0 1 2 28)"/><rect width="2" height="2" fill="#000" transform="matrix(-1 0 0 1 6 28)"/><rect width="2" height="2" fill="#000" transform="matrix(-1 0 0 1 6 24)"/><rect width="2" height="2" fill="#000" transform="matrix(-1 0 0 1 20 26)"/><rect width="2" height="2" fill="#000" transform="matrix(-1 0 0 1 18 24)"/><rect width="2" height="2" fill="#000" transform="matrix(-1 0 0 1 18 28)"/><rect width="2" height="2" fill="#000" transform="matrix(-1 0 0 1 22 28)"/><rect width="2" height="2" fill="#000" transform="matrix(-1 0 0 1 22 24)"/><rect width="2" height="2" fill="#000" transform="matrix(-1 0 0 1 12 26)"/><rect width="2" height="2" fill="#000" transform="matrix(-1 0 0 1 10 24)"/><rect width="2" height="2" fill="#000" transform="matrix(-1 0 0 1 10 28)"/><rect width="2" height="2" fill="#000" transform="matrix(-1 0 0 1 14 28)"/><rect width="2" height="2" fill="#000" transform="matrix(-1 0 0 1 14 24)"/><rect width="2" height="2" fill="#000" transform="matrix(-1 0 0 1 28 26)"/><rect width="2" height="2" fill="#000" transform="matrix(-1 0 0 1 26 24)"/><rect width="2" height="2" fill="#000" transform="matrix(-1 0 0 1 26 28)"/><rect width="2" height="2" fill="#000" transform="matrix(-1 0 0 1 30 28)"/><rect width="2" height="2" fill="#000" transform="matrix(-1 0 0 1 30 24)"/><rect width="2" height="2" fill="#000" transform="matrix(-1 0 0 1 4 18)"/><rect width="2" height="2" fill="#000" transform="matrix(-1 0 0 1 2 16)"/><rect width="2" height="2" fill="#000" transform="matrix(-1 0 0 1 2 20)"/><rect width="2" height="2" fill="#000" transform="matrix(-1 0 0 1 6 20)"/><rect width="2" height="2" fill="#000" transform="matrix(-1 0 0 1 6 16)"/><rect width="2" height="2" fill="#000" transform="matrix(-1 0 0 1 20 18)"/><rect width="2" height="2" fill="#000" transform="matrix(-1 0 0 1 18 16)"/><rect width="2" height="2" fill="#000" transform="matrix(-1 0 0 1 18 20)"/><rect width="2" height="2" fill="#000" transform="matrix(-1 0 0 1 22 20)"/><rect width="2" height="2" fill="#000" transform="matrix(-1 0 0 1 22 16)"/><rect width="2" height="2" fill="#000" transform="matrix(-1 0 0 1 12 18)"/><rect width="2" height="2" fill="#000" transform="matrix(-1 0 0 1 10 16)"/><rect width="2" height="2" fill="#000" transform="matrix(-1 0 0 1 10 20)"/><rect width="2" height="2" fill="#000" transform="matrix(-1 0 0 1 14 20)"/><rect width="2" height="2" fill="#000" transform="matrix(-1 0 0 1 14 16)"/><rect width="2" height="2" fill="#000" transform="matrix(-1 0 0 1 28 18)"/><rect width="2" height="2" fill="#000" transform="matrix(-1 0 0 1 26 16)"/><rect width="2" height="2" fill="#000" transform="matrix(-1 0 0 1 26 20)"/><rect width="2" height="2" fill="#000" transform="matrix(-1 0 0 1 30 20)"/><rect width="2" height="2" fill="#000" transform="matrix(-1 0 0 1 30 16)"/><rect width="2" height="2" fill="#000" transform="matrix(-1 0 0 1 34 42)"/><rect width="2" height="2" fill="#000" transform="matrix(-1 0 0 1 32 40)"/><rect width="2" height="2" fill="#000" transform="matrix(-1 0 0 1 32 44)"/><rect width="2" height="2" fill="#000" transform="matrix(-1 0 0 1 36 44)"/><rect width="2" height="2" fill="#000" transform="matrix(-1 0 0 1 36 40)"/><rect width="2" height="2" fill="#000" transform="matrix(-1 0 0 1 50 42)"/><rect width="2" height="2" fill="#000" transform="matrix(-1 0 0 1 48 40)"/><rect width="2" height="2" fill="#000" transform="matrix(-1 0 0 1 48 44)"/><rect width="2" height="2" fill="#000" transform="matrix(-1 0 0 1 52 44)"/><rect width="2" height="2" fill="#000" transform="matrix(-1 0 0 1 52 40)"/><rect width="2" height="2" fill="#000" transform="matrix(-1 0 0 1 42 42)"/><rect width="2" height="2" fill="#000" transform="matrix(-1 0 0 1 40 40)"/><rect width="2" height="2" fill="#000" transform="matrix(-1 0 0 1 40 44)"/><rect width="2" height="2" fill="#000" transform="matrix(-1 0 0 1 44 44)"/><rect width="2" height="2" fill="#000" transform="matrix(-1 0 0 1 44 40)"/><rect width="2" height="2" fill="#000" transform="matrix(-1 0 0 1 58 42)"/><rect width="2" height="2" fill="#000" transform="matrix(-1 0 0 1 56 40)"/><rect width="2" height="2" fill="#000" transform="matrix(-1 0 0 1 56 44)"/><rect width="2" height="2" fill="#000" transform="matrix(-1 0 0 1 60 44)"/><rect width="2" height="2" fill="#000" transform="matrix(-1 0 0 1 60 40)"/><rect width="2" height="2" fill="#000" transform="matrix(-1 0 0 1 34 34)"/><rect width="2" height="2" fill="#000" transform="matrix(-1 0 0 1 32 32)"/><rect width="2" height="2" fill="#000" transform="matrix(-1 0 0 1 32 36)"/><rect width="2" height="2" fill="#000" transform="matrix(-1 0 0 1 36 36)"/><rect width="2" height="2" fill="#000" transform="matrix(-1 0 0 1 36 32)"/><rect width="2" height="2" fill="#000" transform="matrix(-1 0 0 1 50 34)"/><rect width="2" height="2" fill="#000" transform="matrix(-1 0 0 1 48 32)"/><rect width="2" height="2" fill="#000" transform="matrix(-1 0 0 1 48 36)"/><rect width="2" height="2" fill="#000" transform="matrix(-1 0 0 1 52 36)"/><rect width="2" height="2" fill="#000" transform="matrix(-1 0 0 1 52 32)"/><rect width="2" height="2" fill="#000" transform="matrix(-1 0 0 1 42 34)"/><rect width="2" height="2" fill="#000" transform="matrix(-1 0 0 1 40 32)"/><rect width="2" height="2" fill="#000" transform="matrix(-1 0 0 1 40 36)"/><rect width="2" height="2" fill="#000" transform="matrix(-1 0 0 1 44 36)"/><rect width="2" height="2" fill="#000" transform="matrix(-1 0 0 1 44 32)"/><rect width="2" height="2" fill="#000" transform="matrix(-1 0 0 1 58 34)"/><rect width="2" height="2" fill="#000" transform="matrix(-1 0 0 1 56 32)"/><rect width="2" height="2" fill="#000" transform="matrix(-1 0 0 1 56 36)"/><rect width="2" height="2" fill="#000" transform="matrix(-1 0 0 1 60 36)"/><rect width="2" height="2" fill="#000" transform="matrix(-1 0 0 1 60 32)"/></svg>