<svg xmlns="http://www.w3.org/2000/svg" width="140" height="140" fill="none" viewBox="0 0 140 140"><rect width="10" height="10" x="30" y="10" fill="#000"/><rect width="10" height="10" fill="#000" transform="matrix(1 0 0 -1 30 130)"/><rect width="10" height="10" fill="#000" transform="matrix(-1 0 0 1 110 10)"/><rect width="10" height="10" x="110" y="130" fill="#000" transform="rotate(-180 110 130)"/><rect width="10" height="10" x="20" y="20" fill="#000"/><rect width="10" height="10" fill="#000" transform="matrix(1 0 0 -1 20 120)"/><rect width="10" height="10" fill="#000" transform="matrix(-1 0 0 1 120 20)"/><rect width="10" height="10" x="120" y="120" fill="#000" transform="rotate(-180 120 120)"/><rect width="10" height="10" x="10" y="30" fill="#000"/><rect width="10" height="10" fill="#000" transform="matrix(1 0 0 -1 10 110)"/><rect width="10" height="10" fill="#000" transform="matrix(-1 0 0 1 130 30)"/><rect width="10" height="10" x="130" y="110" fill="#000" transform="rotate(-180 130 110)"/><rect width="10" height="10" y="50" fill="#000"/><rect width="10" height="10" x="50" y="70" fill="#000"/><rect width="10" height="10" x="50" y="50" fill="#000"/><rect width="10" height="10" x="60" y="50" fill="#000" transform="rotate(-90 60 50)"/><rect width="10" height="10" x="60" y="100" fill="#000" transform="rotate(-90 60 100)"/><rect width="10" height="10" fill="#000" transform="matrix(-1 0 0 1 140 50)"/><rect width="10" height="10" x="50" y="10" fill="#000" transform="rotate(-90 50 10)"/><rect width="10" height="10" fill="#000" transform="matrix(-4.37114e-08 1 1 4.37114e-08 50 130)"/><rect width="10" height="10" y="70" fill="#000"/><rect width="10" height="10" fill="#000" transform="matrix(-1 0 0 1 140 70)"/><rect width="10" height="10" x="70" y="10" fill="#000" transform="rotate(-90 70 10)"/><rect width="10" height="10" fill="#000" transform="matrix(-4.37114e-08 1 1 4.37114e-08 70 130)"/><rect width="10" height="10" x="10" y="40" fill="#000"/><rect width="10" height="10" fill="#000" transform="matrix(1 0 0 -1 10 100)"/><rect width="10" height="10" fill="#000" transform="matrix(-1 0 0 1 130 40)"/><rect width="10" height="10" x="130" y="100" fill="#000" transform="rotate(-180 130 100)"/><rect width="10" height="10" y="60" fill="#000"/><rect width="10" height="10" x="50" y="80" fill="#000"/><rect width="10" height="10" x="50" y="60" fill="#000"/><rect width="10" height="10" x="70" y="50" fill="#000" transform="rotate(-90 70 50)"/><rect width="10" height="10" x="80" y="50" fill="#000" transform="rotate(-90 80 50)"/><rect width="10" height="10" x="80" y="100" fill="#000" transform="rotate(-90 80 100)"/><rect width="10" height="10" x="70" y="100" fill="#000" transform="rotate(-90 70 100)"/><rect width="10" height="10" fill="#000" transform="matrix(-1 0 0 1 140 60)"/><rect width="10" height="10" x="60" y="10" fill="#000" transform="rotate(-90 60 10)"/><rect width="10" height="10" fill="#000" transform="matrix(-4.37114e-08 1 1 4.37114e-08 60 130)"/><rect width="10" height="10" y="80" fill="#000"/><rect width="10" height="10" fill="#000" transform="matrix(-1 0 0 1 140 80)"/><rect width="10" height="10" x="80" y="10" fill="#000" transform="rotate(-90 80 10)"/><rect width="10" height="10" fill="#000" transform="matrix(-4.37114e-08 1 1 4.37114e-08 80 130)"/><rect width="10" height="10" x="40" y="10" fill="#000"/><rect width="10" height="10" fill="#000" transform="matrix(1 0 0 -1 40 130)"/><rect width="10" height="10" fill="#000" transform="matrix(-1 0 0 1 100 10)"/><rect width="10" height="10" x="100" y="130" fill="#000" transform="rotate(-180 100 130)"/></svg>