<svg xmlns="http://www.w3.org/2000/svg" width="24" height="24" fill="none" viewBox="0 0 24 24"><rect width="2" height="2" x="12" y="22" fill="#000"/><rect width="2" height="2" x="14" y="22" fill="#000"/><rect width="2" height="2" x="10" y="22" fill="#000"/><rect width="2" height="2" x="10" y="20" fill="#000"/><rect width="2" height="2" x="8" y="20" fill="#000"/><rect width="2" height="2" x="8" y="22" fill="#000"/><rect width="2" height="2" x="14" y="20" fill="#000"/><rect width="2" height="2" x="6" y="16" fill="#000"/><rect width="2" height="2" x="10" fill="#000"/><rect width="2" height="2" x="8" fill="#000"/><rect width="2" height="2" x="12" y="20" fill="#000"/><rect width="2" height="2" x="10" y="18" fill="#000"/><rect width="2" height="2" x="12" y="18" fill="#000"/><rect width="2" height="2" x="14" y="18" fill="#000"/><rect width="2" height="2" x="8" y="18" fill="#000"/><rect width="2" height="2" x="11" y="16" fill="#000"/><rect width="2" height="2" x="11" y="14" fill="#000"/><rect width="2" height="2" x="11" y="12" fill="#000"/><rect width="2" height="2" x="9" y="10" fill="#000"/><rect width="2" height="2" x="11" y="10" fill="#000"/><rect width="2" height="2" x="13" y="10" fill="#000"/><rect width="2" height="2" x="12" fill="#000"/><rect width="2" height="2" x="16" y="16" fill="#000"/><rect width="2" height="2" x="14" fill="#000"/><rect width="2" height="2" x="16" y="2" fill="#000"/><rect width="2" height="2" x="18" y="4" fill="#000"/><rect width="2" height="2" x="4" y="4" fill="#000"/><rect width="2" height="2" x="20" y="6" fill="#000"/><rect width="2" height="2" x="2" y="6" fill="#000"/><rect width="2" height="2" x="4" y="14" fill="#000"/><rect width="2" height="2" x="2" y="12" fill="#000"/><rect width="2" height="2" fill="#000" transform="matrix(-1 0 0 1 20 14)"/><rect width="2" height="2" fill="#000" transform="matrix(-1 0 0 1 22 12)"/><rect width="2" height="2" x="2" y="10" fill="#000"/><rect width="2" height="2" x="20" y="10" fill="#000"/><rect width="2" height="2" x="20" y="8" fill="#000"/><rect width="2" height="2" x="2" y="8" fill="#000"/><rect width="2" height="2" x="6" y="2" fill="#000"/></svg>