<svg xmlns="http://www.w3.org/2000/svg" width="326" height="2" fill="none" viewBox="0 0 326 2"><rect width="2" height="2" x="30" fill="#FFEC19"/><rect width="2" height="2" x="42" fill="#FFEC19"/><rect width="2" height="2" x="54" fill="#FFEC19"/><rect width="2" height="2" x="66" fill="#FFEC19"/><rect width="2" height="2" fill="#FFEC19"/><rect width="2" height="2" x="78" fill="#FFEC19"/><rect width="2" height="2" x="12" fill="#FFEC19"/><rect width="2" height="2" x="90" fill="#FFEC19"/><rect width="2" height="2" x="24" fill="#FFEC19"/><rect width="2" height="2" x="102" fill="#FFEC19"/><rect width="2" height="2" x="114" fill="#FFEC19"/><rect width="2" height="2" x="126" fill="#FFEC19"/><rect width="2" height="2" x="138" fill="#FFEC19"/><rect width="2" height="2" x="150" fill="#FFEC19"/><rect width="2" height="2" x="162" fill="#FFEC19"/><rect width="2" height="2" x="174" fill="#FFEC19"/><rect width="2" height="2" x="186" fill="#FFEC19"/><rect width="2" height="2" x="198" fill="#FFEC19"/><rect width="2" height="2" x="210" fill="#FFEC19"/><rect width="2" height="2" x="222" fill="#FFEC19"/><rect width="2" height="2" x="234" fill="#FFEC19"/><rect width="2" height="2" x="246" fill="#FFEC19"/><rect width="2" height="2" x="258" fill="#FFEC19"/><rect width="2" height="2" x="270" fill="#FFEC19"/><rect width="2" height="2" x="282" fill="#FFEC19"/><rect width="2" height="2" x="294" fill="#FFEC19"/><rect width="2" height="2" x="306" fill="#FFEC19"/><rect width="2" height="2" x="318" fill="#FFEC19"/><rect width="2" height="2" x="36" fill="#FFEC19"/><rect width="2" height="2" x="48" fill="#FFEC19"/><rect width="2" height="2" x="60" fill="#FFEC19"/><rect width="2" height="2" x="72" fill="#FFEC19"/><rect width="2" height="2" x="6" fill="#FFEC19"/><rect width="2" height="2" x="84" fill="#FFEC19"/><rect width="2" height="2" x="18" fill="#FFEC19"/><rect width="2" height="2" x="96" fill="#FFEC19"/><rect width="2" height="2" x="108" fill="#FFEC19"/><rect width="2" height="2" x="120" fill="#FFEC19"/><rect width="2" height="2" x="132" fill="#FFEC19"/><rect width="2" height="2" x="144" fill="#FFEC19"/><rect width="2" height="2" x="156" fill="#FFEC19"/><rect width="2" height="2" x="168" fill="#FFEC19"/><rect width="2" height="2" x="180" fill="#FFEC19"/><rect width="2" height="2" x="192" fill="#FFEC19"/><rect width="2" height="2" x="204" fill="#FFEC19"/><rect width="2" height="2" x="216" fill="#FFEC19"/><rect width="2" height="2" x="228" fill="#FFEC19"/><rect width="2" height="2" x="240" fill="#FFEC19"/><rect width="2" height="2" x="252" fill="#FFEC19"/><rect width="2" height="2" x="264" fill="#FFEC19"/><rect width="2" height="2" x="276" fill="#FFEC19"/><rect width="2" height="2" x="288" fill="#FFEC19"/><rect width="2" height="2" x="300" fill="#FFEC19"/><rect width="2" height="2" x="312" fill="#FFEC19"/><rect width="2" height="2" x="324" fill="#FFEC19"/></svg>