<svg xmlns="http://www.w3.org/2000/svg" width="1120" height="8" fill="none" viewBox="0 0 1120 8"><rect width="2" height="2" x="578" y="4" fill="#FFEC19"/><rect width="2" height="2" x="32" y="4" fill="#FFEC19"/><rect width="2" height="2" x="590" y="4" fill="#FFEC19"/><rect width="2" height="2" x="44" y="4" fill="#FFEC19"/><rect width="2" height="2" x="602" y="4" fill="#FFEC19"/><rect width="2" height="2" x="56" y="4" fill="#FFEC19"/><rect width="2" height="2" x="614" y="4" fill="#FFEC19"/><rect width="2" height="2" x="68" y="4" fill="#FFEC19"/><rect width="2" height="2" x="2" y="4" fill="#FFEC19"/><rect width="2" height="2" x="626" y="4" fill="#FFEC19"/><rect width="2" height="2" x="80" y="4" fill="#FFEC19"/><rect width="2" height="2" x="14" y="4" fill="#FFEC19"/><rect width="2" height="2" x="638" y="4" fill="#FFEC19"/><rect width="2" height="2" x="92" y="4" fill="#FFEC19"/><rect width="2" height="2" x="26" y="4" fill="#FFEC19"/><rect width="2" height="2" x="650" y="4" fill="#FFEC19"/><rect width="2" height="2" x="104" y="4" fill="#FFEC19"/><rect width="2" height="2" x="662" y="4" fill="#FFEC19"/><rect width="2" height="2" x="116" y="4" fill="#FFEC19"/><rect width="2" height="2" x="674" y="4" fill="#FFEC19"/><rect width="2" height="2" x="128" y="4" fill="#FFEC19"/><rect width="2" height="2" x="686" y="4" fill="#FFEC19"/><rect width="2" height="2" x="140" y="4" fill="#FFEC19"/><rect width="2" height="2" x="698" y="4" fill="#FFEC19"/><rect width="2" height="2" x="152" y="4" fill="#FFEC19"/><rect width="2" height="2" x="710" y="4" fill="#FFEC19"/><rect width="2" height="2" x="164" y="4" fill="#FFEC19"/><rect width="2" height="2" x="722" y="4" fill="#FFEC19"/><rect width="2" height="2" x="176" y="4" fill="#FFEC19"/><rect width="2" height="2" x="734" y="4" fill="#FFEC19"/><rect width="2" height="2" x="188" y="4" fill="#FFEC19"/><rect width="2" height="2" x="746" y="4" fill="#FFEC19"/><rect width="2" height="2" x="200" y="4" fill="#FFEC19"/><rect width="2" height="2" x="758" y="4" fill="#FFEC19"/><rect width="2" height="2" x="212" y="4" fill="#FFEC19"/><rect width="2" height="2" x="770" y="4" fill="#FFEC19"/><rect width="2" height="2" x="224" y="4" fill="#FFEC19"/><rect width="2" height="2" x="782" y="4" fill="#FFEC19"/><rect width="2" height="2" x="236" y="4" fill="#FFEC19"/><rect width="2" height="2" x="794" y="4" fill="#FFEC19"/><rect width="2" height="2" x="248" y="4" fill="#FFEC19"/><rect width="2" height="2" x="806" y="4" fill="#FFEC19"/><rect width="2" height="2" x="260" y="4" fill="#FFEC19"/><rect width="2" height="2" x="818" y="4" fill="#FFEC19"/><rect width="2" height="2" x="272" y="4" fill="#FFEC19"/><rect width="2" height="2" x="830" y="4" fill="#FFEC19"/><rect width="2" height="2" x="284" y="4" fill="#FFEC19"/><rect width="2" height="2" x="842" y="4" fill="#FFEC19"/><rect width="2" height="2" x="296" y="4" fill="#FFEC19"/><rect width="2" height="2" x="854" y="4" fill="#FFEC19"/><rect width="2" height="2" x="308" y="4" fill="#FFEC19"/><rect width="2" height="2" x="866" y="4" fill="#FFEC19"/><rect width="2" height="2" x="320" y="4" fill="#FFEC19"/><rect width="2" height="2" x="878" y="4" fill="#FFEC19"/><rect width="2" height="2" x="332" y="4" fill="#FFEC19"/><rect width="2" height="2" x="890" y="4" fill="#FFEC19"/><rect width="2" height="2" x="344" y="4" fill="#FFEC19"/><rect width="2" height="2" x="902" y="4" fill="#FFEC19"/><rect width="2" height="2" x="356" y="4" fill="#FFEC19"/><rect width="2" height="2" x="914" y="4" fill="#FFEC19"/><rect width="2" height="2" x="368" y="4" fill="#FFEC19"/><rect width="2" height="2" x="926" y="4" fill="#FFEC19"/><rect width="2" height="2" x="380" y="4" fill="#FFEC19"/><rect width="2" height="2" x="938" y="4" fill="#FFEC19"/><rect width="2" height="2" x="392" y="4" fill="#FFEC19"/><rect width="2" height="2" x="950" y="4" fill="#FFEC19"/><rect width="2" height="2" x="404" y="4" fill="#FFEC19"/><rect width="2" height="2" x="962" y="4" fill="#FFEC19"/><rect width="2" height="2" x="416" y="4" fill="#FFEC19"/><rect width="2" height="2" x="974" y="4" fill="#FFEC19"/><rect width="2" height="2" x="428" y="4" fill="#FFEC19"/><rect width="2" height="2" x="986" y="4" fill="#FFEC19"/><rect width="2" height="2" x="440" y="4" fill="#FFEC19"/><rect width="2" height="2" x="998" y="4" fill="#FFEC19"/><rect width="2" height="2" x="452" y="4" fill="#FFEC19"/><rect width="2" height="2" x="1010" y="4" fill="#FFEC19"/><rect width="2" height="2" x="464" y="4" fill="#FFEC19"/><rect width="2" height="2" x="1022" y="4" fill="#FFEC19"/><rect width="2" height="2" x="476" y="4" fill="#FFEC19"/><rect width="2" height="2" x="1034" y="4" fill="#FFEC19"/><rect width="2" height="2" x="488" y="4" fill="#FFEC19"/><rect width="2" height="2" x="1046" y="4" fill="#FFEC19"/><rect width="2" height="2" x="500" y="4" fill="#FFEC19"/><rect width="2" height="2" x="1058" y="4" fill="#FFEC19"/><rect width="2" height="2" x="512" y="4" fill="#FFEC19"/><rect width="2" height="2" x="1070" y="4" fill="#FFEC19"/><rect width="2" height="2" x="524" y="4" fill="#FFEC19"/><rect width="2" height="2" x="1082" y="4" fill="#FFEC19"/><rect width="2" height="2" x="536" y="4" fill="#FFEC19"/><rect width="2" height="2" x="1094" y="4" fill="#FFEC19"/><rect width="2" height="2" x="548" y="4" fill="#FFEC19"/><rect width="2" height="2" x="1106" y="4" fill="#FFEC19"/><rect width="2" height="2" x="560" y="4" fill="#FFEC19"/><rect width="2" height="2" x="1118" y="4" fill="#FFEC19"/><rect width="2" height="2" x="572" y="4" fill="#FFEC19"/><rect width="2" height="2" x="584" y="4" fill="#FFEC19"/><rect width="2" height="2" x="38" y="4" fill="#FFEC19"/><rect width="2" height="2" x="596" y="4" fill="#FFEC19"/><rect width="2" height="2" x="50" y="4" fill="#FFEC19"/><rect width="2" height="2" x="608" y="4" fill="#FFEC19"/><rect width="2" height="2" x="62" y="4" fill="#FFEC19"/><rect width="2" height="2" x="620" y="4" fill="#FFEC19"/><rect width="2" height="2" x="74" y="4" fill="#FFEC19"/><rect width="2" height="2" x="8" y="4" fill="#FFEC19"/><rect width="2" height="2" x="632" y="4" fill="#FFEC19"/><rect width="2" height="2" x="86" y="4" fill="#FFEC19"/><rect width="2" height="2" x="20" y="4" fill="#FFEC19"/><rect width="2" height="2" x="644" y="4" fill="#FFEC19"/><rect width="2" height="2" x="98" y="4" fill="#FFEC19"/><rect width="2" height="2" x="656" y="4" fill="#FFEC19"/><rect width="2" height="2" x="110" y="4" fill="#FFEC19"/><rect width="2" height="2" x="668" y="4" fill="#FFEC19"/><rect width="2" height="2" x="122" y="4" fill="#FFEC19"/><rect width="2" height="2" x="680" y="4" fill="#FFEC19"/><rect width="2" height="2" x="134" y="4" fill="#FFEC19"/><rect width="2" height="2" x="692" y="4" fill="#FFEC19"/><rect width="2" height="2" x="146" y="4" fill="#FFEC19"/><rect width="2" height="2" x="704" y="4" fill="#FFEC19"/><rect width="2" height="2" x="158" y="4" fill="#FFEC19"/><rect width="2" height="2" x="716" y="4" fill="#FFEC19"/><rect width="2" height="2" x="170" y="4" fill="#FFEC19"/><rect width="2" height="2" x="728" y="4" fill="#FFEC19"/><rect width="2" height="2" x="182" y="4" fill="#FFEC19"/><rect width="2" height="2" x="740" y="4" fill="#FFEC19"/><rect width="2" height="2" x="194" y="4" fill="#FFEC19"/><rect width="2" height="2" x="752" y="4" fill="#FFEC19"/><rect width="2" height="2" x="206" y="4" fill="#FFEC19"/><rect width="2" height="2" x="764" y="4" fill="#FFEC19"/><rect width="2" height="2" x="218" y="4" fill="#FFEC19"/><rect width="2" height="2" x="776" y="4" fill="#FFEC19"/><rect width="2" height="2" x="230" y="4" fill="#FFEC19"/><rect width="2" height="2" x="788" y="4" fill="#FFEC19"/><rect width="2" height="2" x="242" y="4" fill="#FFEC19"/><rect width="2" height="2" x="800" y="4" fill="#FFEC19"/><rect width="2" height="2" x="254" y="4" fill="#FFEC19"/><rect width="2" height="2" x="812" y="4" fill="#FFEC19"/><rect width="2" height="2" x="266" y="4" fill="#FFEC19"/><rect width="2" height="2" x="824" y="4" fill="#FFEC19"/><rect width="2" height="2" x="278" y="4" fill="#FFEC19"/><rect width="2" height="2" x="836" y="4" fill="#FFEC19"/><rect width="2" height="2" x="290" y="4" fill="#FFEC19"/><rect width="2" height="2" x="848" y="4" fill="#FFEC19"/><rect width="2" height="2" x="302" y="4" fill="#FFEC19"/><rect width="2" height="2" x="860" y="4" fill="#FFEC19"/><rect width="2" height="2" x="314" y="4" fill="#FFEC19"/><rect width="2" height="2" x="872" y="4" fill="#FFEC19"/><rect width="2" height="2" x="326" y="4" fill="#FFEC19"/><rect width="2" height="2" x="884" y="4" fill="#FFEC19"/><rect width="2" height="2" x="338" y="4" fill="#FFEC19"/><rect width="2" height="2" x="896" y="4" fill="#FFEC19"/><rect width="2" height="2" x="350" y="4" fill="#FFEC19"/><rect width="2" height="2" x="908" y="4" fill="#FFEC19"/><rect width="2" height="2" x="362" y="4" fill="#FFEC19"/><rect width="2" height="2" x="920" y="4" fill="#FFEC19"/><rect width="2" height="2" x="374" y="4" fill="#FFEC19"/><rect width="2" height="2" x="932" y="4" fill="#FFEC19"/><rect width="2" height="2" x="386" y="4" fill="#FFEC19"/><rect width="2" height="2" x="944" y="4" fill="#FFEC19"/><rect width="2" height="2" x="398" y="4" fill="#FFEC19"/><rect width="2" height="2" x="956" y="4" fill="#FFEC19"/><rect width="2" height="2" x="410" y="4" fill="#FFEC19"/><rect width="2" height="2" x="968" y="4" fill="#FFEC19"/><rect width="2" height="2" x="422" y="4" fill="#FFEC19"/><rect width="2" height="2" x="980" y="4" fill="#FFEC19"/><rect width="2" height="2" x="434" y="4" fill="#FFEC19"/><rect width="2" height="2" x="992" y="4" fill="#FFEC19"/><rect width="2" height="2" x="446" y="4" fill="#FFEC19"/><rect width="2" height="2" x="1004" y="4" fill="#FFEC19"/><rect width="2" height="2" x="458" y="4" fill="#FFEC19"/><rect width="2" height="2" x="1016" y="4" fill="#FFEC19"/><rect width="2" height="2" x="470" y="4" fill="#FFEC19"/><rect width="2" height="2" x="1028" y="4" fill="#FFEC19"/><rect width="2" height="2" x="482" y="4" fill="#FFEC19"/><rect width="2" height="2" x="1040" y="4" fill="#FFEC19"/><rect width="2" height="2" x="494" y="4" fill="#FFEC19"/><rect width="2" height="2" x="1052" y="4" fill="#FFEC19"/><rect width="2" height="2" x="506" y="4" fill="#FFEC19"/><rect width="2" height="2" x="1064" y="4" fill="#FFEC19"/><rect width="2" height="2" x="518" y="4" fill="#FFEC19"/><rect width="2" height="2" x="1076" y="4" fill="#FFEC19"/><rect width="2" height="2" x="530" y="4" fill="#FFEC19"/><rect width="2" height="2" x="1088" y="4" fill="#FFEC19"/><rect width="2" height="2" x="542" y="4" fill="#FFEC19"/><rect width="2" height="2" x="1100" y="4" fill="#FFEC19"/><rect width="2" height="2" x="554" y="4" fill="#FFEC19"/><rect width="2" height="2" x="1112" y="4" fill="#FFEC19"/><rect width="2" height="2" x="566" y="4" fill="#FFEC19"/><rect width="2" height="2" x="580" y="2" fill="#FFEC19"/><rect width="2" height="2" x="34" y="2" fill="#FFEC19"/><rect width="2" height="2" x="592" y="2" fill="#FFEC19"/><rect width="2" height="2" x="46" y="2" fill="#FFEC19"/><rect width="2" height="2" x="604" y="2" fill="#FFEC19"/><rect width="2" height="2" x="58" y="2" fill="#FFEC19"/><rect width="2" height="2" x="616" y="2" fill="#FFEC19"/><rect width="2" height="2" x="70" y="2" fill="#FFEC19"/><rect width="2" height="2" x="4" y="2" fill="#FFEC19"/><rect width="2" height="2" x="628" y="2" fill="#FFEC19"/><rect width="2" height="2" x="82" y="2" fill="#FFEC19"/><rect width="2" height="2" x="16" y="2" fill="#FFEC19"/><rect width="2" height="2" x="640" y="2" fill="#FFEC19"/><rect width="2" height="2" x="94" y="2" fill="#FFEC19"/><rect width="2" height="2" x="28" y="2" fill="#FFEC19"/><rect width="2" height="2" x="652" y="2" fill="#FFEC19"/><rect width="2" height="2" x="106" y="2" fill="#FFEC19"/><rect width="2" height="2" x="664" y="2" fill="#FFEC19"/><rect width="2" height="2" x="118" y="2" fill="#FFEC19"/><rect width="2" height="2" x="676" y="2" fill="#FFEC19"/><rect width="2" height="2" x="130" y="2" fill="#FFEC19"/><rect width="2" height="2" x="688" y="2" fill="#FFEC19"/><rect width="2" height="2" x="142" y="2" fill="#FFEC19"/><rect width="2" height="2" x="700" y="2" fill="#FFEC19"/><rect width="2" height="2" x="154" y="2" fill="#FFEC19"/><rect width="2" height="2" x="712" y="2" fill="#FFEC19"/><rect width="2" height="2" x="166" y="2" fill="#FFEC19"/><rect width="2" height="2" x="724" y="2" fill="#FFEC19"/><rect width="2" height="2" x="178" y="2" fill="#FFEC19"/><rect width="2" height="2" x="736" y="2" fill="#FFEC19"/><rect width="2" height="2" x="190" y="2" fill="#FFEC19"/><rect width="2" height="2" x="748" y="2" fill="#FFEC19"/><rect width="2" height="2" x="202" y="2" fill="#FFEC19"/><rect width="2" height="2" x="760" y="2" fill="#FFEC19"/><rect width="2" height="2" x="214" y="2" fill="#FFEC19"/><rect width="2" height="2" x="772" y="2" fill="#FFEC19"/><rect width="2" height="2" x="226" y="2" fill="#FFEC19"/><rect width="2" height="2" x="784" y="2" fill="#FFEC19"/><rect width="2" height="2" x="238" y="2" fill="#FFEC19"/><rect width="2" height="2" x="796" y="2" fill="#FFEC19"/><rect width="2" height="2" x="250" y="2" fill="#FFEC19"/><rect width="2" height="2" x="808" y="2" fill="#FFEC19"/><rect width="2" height="2" x="262" y="2" fill="#FFEC19"/><rect width="2" height="2" x="820" y="2" fill="#FFEC19"/><rect width="2" height="2" x="274" y="2" fill="#FFEC19"/><rect width="2" height="2" x="832" y="2" fill="#FFEC19"/><rect width="2" height="2" x="286" y="2" fill="#FFEC19"/><rect width="2" height="2" x="844" y="2" fill="#FFEC19"/><rect width="2" height="2" x="298" y="2" fill="#FFEC19"/><rect width="2" height="2" x="856" y="2" fill="#FFEC19"/><rect width="2" height="2" x="310" y="2" fill="#FFEC19"/><rect width="2" height="2" x="868" y="2" fill="#FFEC19"/><rect width="2" height="2" x="322" y="2" fill="#FFEC19"/><rect width="2" height="2" x="880" y="2" fill="#FFEC19"/><rect width="2" height="2" x="334" y="2" fill="#FFEC19"/><rect width="2" height="2" x="892" y="2" fill="#FFEC19"/><rect width="2" height="2" x="346" y="2" fill="#FFEC19"/><rect width="2" height="2" x="904" y="2" fill="#FFEC19"/><rect width="2" height="2" x="358" y="2" fill="#FFEC19"/><rect width="2" height="2" x="916" y="2" fill="#FFEC19"/><rect width="2" height="2" x="370" y="2" fill="#FFEC19"/><rect width="2" height="2" x="928" y="2" fill="#FFEC19"/><rect width="2" height="2" x="382" y="2" fill="#FFEC19"/><rect width="2" height="2" x="940" y="2" fill="#FFEC19"/><rect width="2" height="2" x="394" y="2" fill="#FFEC19"/><rect width="2" height="2" x="952" y="2" fill="#FFEC19"/><rect width="2" height="2" x="406" y="2" fill="#FFEC19"/><rect width="2" height="2" x="964" y="2" fill="#FFEC19"/><rect width="2" height="2" x="418" y="2" fill="#FFEC19"/><rect width="2" height="2" x="976" y="2" fill="#FFEC19"/><rect width="2" height="2" x="430" y="2" fill="#FFEC19"/><rect width="2" height="2" x="988" y="2" fill="#FFEC19"/><rect width="2" height="2" x="442" y="2" fill="#FFEC19"/><rect width="2" height="2" x="1000" y="2" fill="#FFEC19"/><rect width="2" height="2" x="454" y="2" fill="#FFEC19"/><rect width="2" height="2" x="1012" y="2" fill="#FFEC19"/><rect width="2" height="2" x="466" y="2" fill="#FFEC19"/><rect width="2" height="2" x="1024" y="2" fill="#FFEC19"/><rect width="2" height="2" x="478" y="2" fill="#FFEC19"/><rect width="2" height="2" x="1036" y="2" fill="#FFEC19"/><rect width="2" height="2" x="490" y="2" fill="#FFEC19"/><rect width="2" height="2" x="1048" y="2" fill="#FFEC19"/><rect width="2" height="2" x="502" y="2" fill="#FFEC19"/><rect width="2" height="2" x="1060" y="2" fill="#FFEC19"/><rect width="2" height="2" x="514" y="2" fill="#FFEC19"/><rect width="2" height="2" x="1072" y="2" fill="#FFEC19"/><rect width="2" height="2" x="526" y="2" fill="#FFEC19"/><rect width="2" height="2" x="1084" y="2" fill="#FFEC19"/><rect width="2" height="2" x="538" y="2" fill="#FFEC19"/><rect width="2" height="2" x="1096" y="2" fill="#FFEC19"/><rect width="2" height="2" x="550" y="2" fill="#FFEC19"/><rect width="2" height="2" x="1108" y="2" fill="#FFEC19"/><rect width="2" height="2" x="562" y="2" fill="#FFEC19"/><rect width="2" height="2" x="586" y="2" fill="#FFEC19"/><rect width="2" height="2" x="40" y="2" fill="#FFEC19"/><rect width="2" height="2" x="598" y="2" fill="#FFEC19"/><rect width="2" height="2" x="52" y="2" fill="#FFEC19"/><rect width="2" height="2" x="610" y="2" fill="#FFEC19"/><rect width="2" height="2" x="64" y="2" fill="#FFEC19"/><rect width="2" height="2" x="622" y="2" fill="#FFEC19"/><rect width="2" height="2" x="76" y="2" fill="#FFEC19"/><rect width="2" height="2" x="10" y="2" fill="#FFEC19"/><rect width="2" height="2" x="634" y="2" fill="#FFEC19"/><rect width="2" height="2" x="88" y="2" fill="#FFEC19"/><rect width="2" height="2" x="22" y="2" fill="#FFEC19"/><rect width="2" height="2" x="646" y="2" fill="#FFEC19"/><rect width="2" height="2" x="100" y="2" fill="#FFEC19"/><rect width="2" height="2" x="658" y="2" fill="#FFEC19"/><rect width="2" height="2" x="112" y="2" fill="#FFEC19"/><rect width="2" height="2" x="670" y="2" fill="#FFEC19"/><rect width="2" height="2" x="124" y="2" fill="#FFEC19"/><rect width="2" height="2" x="682" y="2" fill="#FFEC19"/><rect width="2" height="2" x="136" y="2" fill="#FFEC19"/><rect width="2" height="2" x="694" y="2" fill="#FFEC19"/><rect width="2" height="2" x="148" y="2" fill="#FFEC19"/><rect width="2" height="2" x="706" y="2" fill="#FFEC19"/><rect width="2" height="2" x="160" y="2" fill="#FFEC19"/><rect width="2" height="2" x="718" y="2" fill="#FFEC19"/><rect width="2" height="2" x="172" y="2" fill="#FFEC19"/><rect width="2" height="2" x="730" y="2" fill="#FFEC19"/><rect width="2" height="2" x="184" y="2" fill="#FFEC19"/><rect width="2" height="2" x="742" y="2" fill="#FFEC19"/><rect width="2" height="2" x="196" y="2" fill="#FFEC19"/><rect width="2" height="2" x="754" y="2" fill="#FFEC19"/><rect width="2" height="2" x="208" y="2" fill="#FFEC19"/><rect width="2" height="2" x="766" y="2" fill="#FFEC19"/><rect width="2" height="2" x="220" y="2" fill="#FFEC19"/><rect width="2" height="2" x="778" y="2" fill="#FFEC19"/><rect width="2" height="2" x="232" y="2" fill="#FFEC19"/><rect width="2" height="2" x="790" y="2" fill="#FFEC19"/><rect width="2" height="2" x="244" y="2" fill="#FFEC19"/><rect width="2" height="2" x="802" y="2" fill="#FFEC19"/><rect width="2" height="2" x="256" y="2" fill="#FFEC19"/><rect width="2" height="2" x="814" y="2" fill="#FFEC19"/><rect width="2" height="2" x="268" y="2" fill="#FFEC19"/><rect width="2" height="2" x="826" y="2" fill="#FFEC19"/><rect width="2" height="2" x="280" y="2" fill="#FFEC19"/><rect width="2" height="2" x="838" y="2" fill="#FFEC19"/><rect width="2" height="2" x="292" y="2" fill="#FFEC19"/><rect width="2" height="2" x="850" y="2" fill="#FFEC19"/><rect width="2" height="2" x="304" y="2" fill="#FFEC19"/><rect width="2" height="2" x="862" y="2" fill="#FFEC19"/><rect width="2" height="2" x="316" y="2" fill="#FFEC19"/><rect width="2" height="2" x="874" y="2" fill="#FFEC19"/><rect width="2" height="2" x="328" y="2" fill="#FFEC19"/><rect width="2" height="2" x="886" y="2" fill="#FFEC19"/><rect width="2" height="2" x="340" y="2" fill="#FFEC19"/><rect width="2" height="2" x="898" y="2" fill="#FFEC19"/><rect width="2" height="2" x="352" y="2" fill="#FFEC19"/><rect width="2" height="2" x="910" y="2" fill="#FFEC19"/><rect width="2" height="2" x="364" y="2" fill="#FFEC19"/><rect width="2" height="2" x="922" y="2" fill="#FFEC19"/><rect width="2" height="2" x="376" y="2" fill="#FFEC19"/><rect width="2" height="2" x="934" y="2" fill="#FFEC19"/><rect width="2" height="2" x="388" y="2" fill="#FFEC19"/><rect width="2" height="2" x="946" y="2" fill="#FFEC19"/><rect width="2" height="2" x="400" y="2" fill="#FFEC19"/><rect width="2" height="2" x="958" y="2" fill="#FFEC19"/><rect width="2" height="2" x="412" y="2" fill="#FFEC19"/><rect width="2" height="2" x="970" y="2" fill="#FFEC19"/><rect width="2" height="2" x="424" y="2" fill="#FFEC19"/><rect width="2" height="2" x="982" y="2" fill="#FFEC19"/><rect width="2" height="2" x="436" y="2" fill="#FFEC19"/><rect width="2" height="2" x="994" y="2" fill="#FFEC19"/><rect width="2" height="2" x="448" y="2" fill="#FFEC19"/><rect width="2" height="2" x="1006" y="2" fill="#FFEC19"/><rect width="2" height="2" x="460" y="2" fill="#FFEC19"/><rect width="2" height="2" x="1018" y="2" fill="#FFEC19"/><rect width="2" height="2" x="472" y="2" fill="#FFEC19"/><rect width="2" height="2" x="1030" y="2" fill="#FFEC19"/><rect width="2" height="2" x="484" y="2" fill="#FFEC19"/><rect width="2" height="2" x="1042" y="2" fill="#FFEC19"/><rect width="2" height="2" x="496" y="2" fill="#FFEC19"/><rect width="2" height="2" x="1054" y="2" fill="#FFEC19"/><rect width="2" height="2" x="508" y="2" fill="#FFEC19"/><rect width="2" height="2" x="1066" y="2" fill="#FFEC19"/><rect width="2" height="2" x="520" y="2" fill="#FFEC19"/><rect width="2" height="2" x="1078" y="2" fill="#FFEC19"/><rect width="2" height="2" x="532" y="2" fill="#FFEC19"/><rect width="2" height="2" x="1090" y="2" fill="#FFEC19"/><rect width="2" height="2" x="544" y="2" fill="#FFEC19"/><rect width="2" height="2" x="1102" y="2" fill="#FFEC19"/><rect width="2" height="2" x="556" y="2" fill="#FFEC19"/><rect width="2" height="2" x="1114" y="2" fill="#FFEC19"/><rect width="2" height="2" x="568" y="2" fill="#FFEC19"/><rect width="2" height="2" x="582" fill="#FFEC19"/><rect width="2" height="2" x="36" fill="#FFEC19"/><rect width="2" height="2" x="576" fill="#FFEC19"/><rect width="2" height="2" x="574" y="2" fill="#FFEC19"/><rect width="2" height="2" x="594" fill="#FFEC19"/><rect width="2" height="2" x="48" fill="#FFEC19"/><rect width="2" height="2" x="606" fill="#FFEC19"/><rect width="2" height="2" x="60" fill="#FFEC19"/><rect width="2" height="2" x="618" fill="#FFEC19"/><rect width="2" height="2" x="72" fill="#FFEC19"/><rect width="2" height="2" x="6" fill="#FFEC19"/><rect width="2" height="2" x="630" fill="#FFEC19"/><rect width="2" height="2" x="84" fill="#FFEC19"/><rect width="2" height="2" x="18" fill="#FFEC19"/><rect width="2" height="2" x="642" fill="#FFEC19"/><rect width="2" height="2" x="96" fill="#FFEC19"/><rect width="2" height="2" x="30" fill="#FFEC19"/><rect width="2" height="2" x="654" fill="#FFEC19"/><rect width="2" height="2" x="108" fill="#FFEC19"/><rect width="2" height="2" x="666" fill="#FFEC19"/><rect width="2" height="2" x="120" fill="#FFEC19"/><rect width="2" height="2" x="678" fill="#FFEC19"/><rect width="2" height="2" x="132" fill="#FFEC19"/><rect width="2" height="2" x="690" fill="#FFEC19"/><rect width="2" height="2" x="144" fill="#FFEC19"/><rect width="2" height="2" x="702" fill="#FFEC19"/><rect width="2" height="2" x="156" fill="#FFEC19"/><rect width="2" height="2" x="714" fill="#FFEC19"/><rect width="2" height="2" x="168" fill="#FFEC19"/><rect width="2" height="2" x="726" fill="#FFEC19"/><rect width="2" height="2" x="180" fill="#FFEC19"/><rect width="2" height="2" x="738" fill="#FFEC19"/><rect width="2" height="2" x="192" fill="#FFEC19"/><rect width="2" height="2" x="750" fill="#FFEC19"/><rect width="2" height="2" x="204" fill="#FFEC19"/><rect width="2" height="2" x="762" fill="#FFEC19"/><rect width="2" height="2" x="216" fill="#FFEC19"/><rect width="2" height="2" x="774" fill="#FFEC19"/><rect width="2" height="2" x="228" fill="#FFEC19"/><rect width="2" height="2" x="786" fill="#FFEC19"/><rect width="2" height="2" x="240" fill="#FFEC19"/><rect width="2" height="2" x="798" fill="#FFEC19"/><rect width="2" height="2" x="252" fill="#FFEC19"/><rect width="2" height="2" x="810" fill="#FFEC19"/><rect width="2" height="2" x="264" fill="#FFEC19"/><rect width="2" height="2" x="822" fill="#FFEC19"/><rect width="2" height="2" x="276" fill="#FFEC19"/><rect width="2" height="2" x="834" fill="#FFEC19"/><rect width="2" height="2" x="288" fill="#FFEC19"/><rect width="2" height="2" x="846" fill="#FFEC19"/><rect width="2" height="2" x="300" fill="#FFEC19"/><rect width="2" height="2" x="858" fill="#FFEC19"/><rect width="2" height="2" x="312" fill="#FFEC19"/><rect width="2" height="2" x="870" fill="#FFEC19"/><rect width="2" height="2" x="324" fill="#FFEC19"/><rect width="2" height="2" x="882" fill="#FFEC19"/><rect width="2" height="2" x="336" fill="#FFEC19"/><rect width="2" height="2" x="894" fill="#FFEC19"/><rect width="2" height="2" x="348" fill="#FFEC19"/><rect width="2" height="2" x="906" fill="#FFEC19"/><rect width="2" height="2" x="360" fill="#FFEC19"/><rect width="2" height="2" x="918" fill="#FFEC19"/><rect width="2" height="2" x="372" fill="#FFEC19"/><rect width="2" height="2" x="930" fill="#FFEC19"/><rect width="2" height="2" x="384" fill="#FFEC19"/><rect width="2" height="2" x="942" fill="#FFEC19"/><rect width="2" height="2" x="396" fill="#FFEC19"/><rect width="2" height="2" x="954" fill="#FFEC19"/><rect width="2" height="2" x="408" fill="#FFEC19"/><rect width="2" height="2" x="966" fill="#FFEC19"/><rect width="2" height="2" x="420" fill="#FFEC19"/><rect width="2" height="2" x="978" fill="#FFEC19"/><rect width="2" height="2" x="432" fill="#FFEC19"/><rect width="2" height="2" x="990" fill="#FFEC19"/><rect width="2" height="2" x="444" fill="#FFEC19"/><rect width="2" height="2" x="1002" fill="#FFEC19"/><rect width="2" height="2" x="456" fill="#FFEC19"/><rect width="2" height="2" x="1014" fill="#FFEC19"/><rect width="2" height="2" x="468" fill="#FFEC19"/><rect width="2" height="2" x="1026" fill="#FFEC19"/><rect width="2" height="2" x="480" fill="#FFEC19"/><rect width="2" height="2" x="1038" fill="#FFEC19"/><rect width="2" height="2" x="492" fill="#FFEC19"/><rect width="2" height="2" x="1050" fill="#FFEC19"/><rect width="2" height="2" x="504" fill="#FFEC19"/><rect width="2" height="2" x="1062" fill="#FFEC19"/><rect width="2" height="2" x="516" fill="#FFEC19"/><rect width="2" height="2" x="1074" fill="#FFEC19"/><rect width="2" height="2" x="528" fill="#FFEC19"/><rect width="2" height="2" x="1086" fill="#FFEC19"/><rect width="2" height="2" x="540" fill="#FFEC19"/><rect width="2" height="2" x="1098" fill="#FFEC19"/><rect width="2" height="2" x="552" fill="#FFEC19"/><rect width="2" height="2" x="1110" fill="#FFEC19"/><rect width="2" height="2" x="564" fill="#FFEC19"/><rect width="2" height="2" x="588" fill="#FFEC19"/><rect width="2" height="2" x="42" fill="#FFEC19"/><rect width="2" height="2" x="600" fill="#FFEC19"/><rect width="2" height="2" x="54" fill="#FFEC19"/><rect width="2" height="2" x="612" fill="#FFEC19"/><rect width="2" height="2" x="66" fill="#FFEC19"/><rect width="2" height="2" fill="#FFEC19"/><rect width="2" height="2" x="624" fill="#FFEC19"/><rect width="2" height="2" x="78" fill="#FFEC19"/><rect width="2" height="2" x="12" fill="#FFEC19"/><rect width="2" height="2" x="636" fill="#FFEC19"/><rect width="2" height="2" x="90" fill="#FFEC19"/><rect width="2" height="2" x="24" fill="#FFEC19"/><rect width="2" height="2" x="648" fill="#FFEC19"/><rect width="2" height="2" x="102" fill="#FFEC19"/><rect width="2" height="2" x="660" fill="#FFEC19"/><rect width="2" height="2" x="114" fill="#FFEC19"/><rect width="2" height="2" x="672" fill="#FFEC19"/><rect width="2" height="2" x="126" fill="#FFEC19"/><rect width="2" height="2" x="684" fill="#FFEC19"/><rect width="2" height="2" x="138" fill="#FFEC19"/><rect width="2" height="2" x="696" fill="#FFEC19"/><rect width="2" height="2" x="150" fill="#FFEC19"/><rect width="2" height="2" x="708" fill="#FFEC19"/><rect width="2" height="2" x="162" fill="#FFEC19"/><rect width="2" height="2" x="720" fill="#FFEC19"/><rect width="2" height="2" x="174" fill="#FFEC19"/><rect width="2" height="2" x="732" fill="#FFEC19"/><rect width="2" height="2" x="186" fill="#FFEC19"/><rect width="2" height="2" x="744" fill="#FFEC19"/><rect width="2" height="2" x="198" fill="#FFEC19"/><rect width="2" height="2" x="756" fill="#FFEC19"/><rect width="2" height="2" x="210" fill="#FFEC19"/><rect width="2" height="2" x="768" fill="#FFEC19"/><rect width="2" height="2" x="222" fill="#FFEC19"/><rect width="2" height="2" x="780" fill="#FFEC19"/><rect width="2" height="2" x="234" fill="#FFEC19"/><rect width="2" height="2" x="792" fill="#FFEC19"/><rect width="2" height="2" x="246" fill="#FFEC19"/><rect width="2" height="2" x="804" fill="#FFEC19"/><rect width="2" height="2" x="258" fill="#FFEC19"/><rect width="2" height="2" x="816" fill="#FFEC19"/><rect width="2" height="2" x="270" fill="#FFEC19"/><rect width="2" height="2" x="828" fill="#FFEC19"/><rect width="2" height="2" x="282" fill="#FFEC19"/><rect width="2" height="2" x="840" fill="#FFEC19"/><rect width="2" height="2" x="294" fill="#FFEC19"/><rect width="2" height="2" x="852" fill="#FFEC19"/><rect width="2" height="2" x="306" fill="#FFEC19"/><rect width="2" height="2" x="864" fill="#FFEC19"/><rect width="2" height="2" x="318" fill="#FFEC19"/><rect width="2" height="2" x="876" fill="#FFEC19"/><rect width="2" height="2" x="330" fill="#FFEC19"/><rect width="2" height="2" x="888" fill="#FFEC19"/><rect width="2" height="2" x="342" fill="#FFEC19"/><rect width="2" height="2" x="900" fill="#FFEC19"/><rect width="2" height="2" x="354" fill="#FFEC19"/><rect width="2" height="2" x="912" fill="#FFEC19"/><rect width="2" height="2" x="366" fill="#FFEC19"/><rect width="2" height="2" x="924" fill="#FFEC19"/><rect width="2" height="2" x="378" fill="#FFEC19"/><rect width="2" height="2" x="936" fill="#FFEC19"/><rect width="2" height="2" x="390" fill="#FFEC19"/><rect width="2" height="2" x="948" fill="#FFEC19"/><rect width="2" height="2" x="402" fill="#FFEC19"/><rect width="2" height="2" x="960" fill="#FFEC19"/><rect width="2" height="2" x="414" fill="#FFEC19"/><rect width="2" height="2" x="972" fill="#FFEC19"/><rect width="2" height="2" x="426" fill="#FFEC19"/><rect width="2" height="2" x="984" fill="#FFEC19"/><rect width="2" height="2" x="438" fill="#FFEC19"/><rect width="2" height="2" x="996" fill="#FFEC19"/><rect width="2" height="2" x="450" fill="#FFEC19"/><rect width="2" height="2" x="1008" fill="#FFEC19"/><rect width="2" height="2" x="462" fill="#FFEC19"/><rect width="2" height="2" x="1020" fill="#FFEC19"/><rect width="2" height="2" x="474" fill="#FFEC19"/><rect width="2" height="2" x="1032" fill="#FFEC19"/><rect width="2" height="2" x="486" fill="#FFEC19"/><rect width="2" height="2" x="1044" fill="#FFEC19"/><rect width="2" height="2" x="498" fill="#FFEC19"/><rect width="2" height="2" x="1056" fill="#FFEC19"/><rect width="2" height="2" x="510" fill="#FFEC19"/><rect width="2" height="2" x="1068" fill="#FFEC19"/><rect width="2" height="2" x="522" fill="#FFEC19"/><rect width="2" height="2" x="1080" fill="#FFEC19"/><rect width="2" height="2" x="534" fill="#FFEC19"/><rect width="2" height="2" x="1092" fill="#FFEC19"/><rect width="2" height="2" x="546" fill="#FFEC19"/><rect width="2" height="2" x="1104" fill="#FFEC19"/><rect width="2" height="2" x="558" fill="#FFEC19"/><rect width="2" height="2" x="1116" fill="#FFEC19"/><rect width="2" height="2" x="570" fill="#FFEC19"/><rect width="2" height="2" x="576" y="6" fill="#FFEC19"/><rect width="2" height="2" x="30" y="6" fill="#FFEC19"/><rect width="2" height="2" x="588" y="6" fill="#FFEC19"/><rect width="2" height="2" x="42" y="6" fill="#FFEC19"/><rect width="2" height="2" x="600" y="6" fill="#FFEC19"/><rect width="2" height="2" x="54" y="6" fill="#FFEC19"/><rect width="2" height="2" x="612" y="6" fill="#FFEC19"/><rect width="2" height="2" x="66" y="6" fill="#FFEC19"/><rect width="2" height="2" y="6" fill="#FFEC19"/><rect width="2" height="2" x="624" y="6" fill="#FFEC19"/><rect width="2" height="2" x="78" y="6" fill="#FFEC19"/><rect width="2" height="2" x="12" y="6" fill="#FFEC19"/><rect width="2" height="2" x="636" y="6" fill="#FFEC19"/><rect width="2" height="2" x="90" y="6" fill="#FFEC19"/><rect width="2" height="2" x="24" y="6" fill="#FFEC19"/><rect width="2" height="2" x="648" y="6" fill="#FFEC19"/><rect width="2" height="2" x="102" y="6" fill="#FFEC19"/><rect width="2" height="2" x="660" y="6" fill="#FFEC19"/><rect width="2" height="2" x="114" y="6" fill="#FFEC19"/><rect width="2" height="2" x="672" y="6" fill="#FFEC19"/><rect width="2" height="2" x="126" y="6" fill="#FFEC19"/><rect width="2" height="2" x="684" y="6" fill="#FFEC19"/><rect width="2" height="2" x="138" y="6" fill="#FFEC19"/><rect width="2" height="2" x="696" y="6" fill="#FFEC19"/><rect width="2" height="2" x="150" y="6" fill="#FFEC19"/><rect width="2" height="2" x="708" y="6" fill="#FFEC19"/><rect width="2" height="2" x="162" y="6" fill="#FFEC19"/><rect width="2" height="2" x="720" y="6" fill="#FFEC19"/><rect width="2" height="2" x="174" y="6" fill="#FFEC19"/><rect width="2" height="2" x="732" y="6" fill="#FFEC19"/><rect width="2" height="2" x="186" y="6" fill="#FFEC19"/><rect width="2" height="2" x="744" y="6" fill="#FFEC19"/><rect width="2" height="2" x="198" y="6" fill="#FFEC19"/><rect width="2" height="2" x="756" y="6" fill="#FFEC19"/><rect width="2" height="2" x="210" y="6" fill="#FFEC19"/><rect width="2" height="2" x="768" y="6" fill="#FFEC19"/><rect width="2" height="2" x="222" y="6" fill="#FFEC19"/><rect width="2" height="2" x="780" y="6" fill="#FFEC19"/><rect width="2" height="2" x="234" y="6" fill="#FFEC19"/><rect width="2" height="2" x="792" y="6" fill="#FFEC19"/><rect width="2" height="2" x="246" y="6" fill="#FFEC19"/><rect width="2" height="2" x="804" y="6" fill="#FFEC19"/><rect width="2" height="2" x="258" y="6" fill="#FFEC19"/><rect width="2" height="2" x="816" y="6" fill="#FFEC19"/><rect width="2" height="2" x="270" y="6" fill="#FFEC19"/><rect width="2" height="2" x="828" y="6" fill="#FFEC19"/><rect width="2" height="2" x="282" y="6" fill="#FFEC19"/><rect width="2" height="2" x="840" y="6" fill="#FFEC19"/><rect width="2" height="2" x="294" y="6" fill="#FFEC19"/><rect width="2" height="2" x="852" y="6" fill="#FFEC19"/><rect width="2" height="2" x="306" y="6" fill="#FFEC19"/><rect width="2" height="2" x="864" y="6" fill="#FFEC19"/><rect width="2" height="2" x="318" y="6" fill="#FFEC19"/><rect width="2" height="2" x="876" y="6" fill="#FFEC19"/><rect width="2" height="2" x="330" y="6" fill="#FFEC19"/><rect width="2" height="2" x="888" y="6" fill="#FFEC19"/><rect width="2" height="2" x="342" y="6" fill="#FFEC19"/><rect width="2" height="2" x="900" y="6" fill="#FFEC19"/><rect width="2" height="2" x="354" y="6" fill="#FFEC19"/><rect width="2" height="2" x="912" y="6" fill="#FFEC19"/><rect width="2" height="2" x="366" y="6" fill="#FFEC19"/><rect width="2" height="2" x="924" y="6" fill="#FFEC19"/><rect width="2" height="2" x="378" y="6" fill="#FFEC19"/><rect width="2" height="2" x="936" y="6" fill="#FFEC19"/><rect width="2" height="2" x="390" y="6" fill="#FFEC19"/><rect width="2" height="2" x="948" y="6" fill="#FFEC19"/><rect width="2" height="2" x="402" y="6" fill="#FFEC19"/><rect width="2" height="2" x="960" y="6" fill="#FFEC19"/><rect width="2" height="2" x="414" y="6" fill="#FFEC19"/><rect width="2" height="2" x="972" y="6" fill="#FFEC19"/><rect width="2" height="2" x="426" y="6" fill="#FFEC19"/><rect width="2" height="2" x="984" y="6" fill="#FFEC19"/><rect width="2" height="2" x="438" y="6" fill="#FFEC19"/><rect width="2" height="2" x="996" y="6" fill="#FFEC19"/><rect width="2" height="2" x="450" y="6" fill="#FFEC19"/><rect width="2" height="2" x="1008" y="6" fill="#FFEC19"/><rect width="2" height="2" x="462" y="6" fill="#FFEC19"/><rect width="2" height="2" x="1020" y="6" fill="#FFEC19"/><rect width="2" height="2" x="474" y="6" fill="#FFEC19"/><rect width="2" height="2" x="1032" y="6" fill="#FFEC19"/><rect width="2" height="2" x="486" y="6" fill="#FFEC19"/><rect width="2" height="2" x="1044" y="6" fill="#FFEC19"/><rect width="2" height="2" x="498" y="6" fill="#FFEC19"/><rect width="2" height="2" x="1056" y="6" fill="#FFEC19"/><rect width="2" height="2" x="510" y="6" fill="#FFEC19"/><rect width="2" height="2" x="1068" y="6" fill="#FFEC19"/><rect width="2" height="2" x="522" y="6" fill="#FFEC19"/><rect width="2" height="2" x="1080" y="6" fill="#FFEC19"/><rect width="2" height="2" x="534" y="6" fill="#FFEC19"/><rect width="2" height="2" x="1092" y="6" fill="#FFEC19"/><rect width="2" height="2" x="546" y="6" fill="#FFEC19"/><rect width="2" height="2" x="1104" y="6" fill="#FFEC19"/><rect width="2" height="2" x="558" y="6" fill="#FFEC19"/><rect width="2" height="2" x="1116" y="6" fill="#FFEC19"/><rect width="2" height="2" x="570" y="6" fill="#FFEC19"/><rect width="2" height="2" x="582" y="6" fill="#FFEC19"/><rect width="2" height="2" x="36" y="6" fill="#FFEC19"/><rect width="2" height="2" x="594" y="6" fill="#FFEC19"/><rect width="2" height="2" x="48" y="6" fill="#FFEC19"/><rect width="2" height="2" x="606" y="6" fill="#FFEC19"/><rect width="2" height="2" x="60" y="6" fill="#FFEC19"/><rect width="2" height="2" x="618" y="6" fill="#FFEC19"/><rect width="2" height="2" x="72" y="6" fill="#FFEC19"/><rect width="2" height="2" x="6" y="6" fill="#FFEC19"/><rect width="2" height="2" x="630" y="6" fill="#FFEC19"/><rect width="2" height="2" x="84" y="6" fill="#FFEC19"/><rect width="2" height="2" x="18" y="6" fill="#FFEC19"/><rect width="2" height="2" x="642" y="6" fill="#FFEC19"/><rect width="2" height="2" x="96" y="6" fill="#FFEC19"/><rect width="2" height="2" x="654" y="6" fill="#FFEC19"/><rect width="2" height="2" x="108" y="6" fill="#FFEC19"/><rect width="2" height="2" x="666" y="6" fill="#FFEC19"/><rect width="2" height="2" x="120" y="6" fill="#FFEC19"/><rect width="2" height="2" x="678" y="6" fill="#FFEC19"/><rect width="2" height="2" x="132" y="6" fill="#FFEC19"/><rect width="2" height="2" x="690" y="6" fill="#FFEC19"/><rect width="2" height="2" x="144" y="6" fill="#FFEC19"/><rect width="2" height="2" x="702" y="6" fill="#FFEC19"/><rect width="2" height="2" x="156" y="6" fill="#FFEC19"/><rect width="2" height="2" x="714" y="6" fill="#FFEC19"/><rect width="2" height="2" x="168" y="6" fill="#FFEC19"/><rect width="2" height="2" x="726" y="6" fill="#FFEC19"/><rect width="2" height="2" x="180" y="6" fill="#FFEC19"/><rect width="2" height="2" x="738" y="6" fill="#FFEC19"/><rect width="2" height="2" x="192" y="6" fill="#FFEC19"/><rect width="2" height="2" x="750" y="6" fill="#FFEC19"/><rect width="2" height="2" x="204" y="6" fill="#FFEC19"/><rect width="2" height="2" x="762" y="6" fill="#FFEC19"/><rect width="2" height="2" x="216" y="6" fill="#FFEC19"/><rect width="2" height="2" x="774" y="6" fill="#FFEC19"/><rect width="2" height="2" x="228" y="6" fill="#FFEC19"/><rect width="2" height="2" x="786" y="6" fill="#FFEC19"/><rect width="2" height="2" x="240" y="6" fill="#FFEC19"/><rect width="2" height="2" x="798" y="6" fill="#FFEC19"/><rect width="2" height="2" x="252" y="6" fill="#FFEC19"/><rect width="2" height="2" x="810" y="6" fill="#FFEC19"/><rect width="2" height="2" x="264" y="6" fill="#FFEC19"/><rect width="2" height="2" x="822" y="6" fill="#FFEC19"/><rect width="2" height="2" x="276" y="6" fill="#FFEC19"/><rect width="2" height="2" x="834" y="6" fill="#FFEC19"/><rect width="2" height="2" x="288" y="6" fill="#FFEC19"/><rect width="2" height="2" x="846" y="6" fill="#FFEC19"/><rect width="2" height="2" x="300" y="6" fill="#FFEC19"/><rect width="2" height="2" x="858" y="6" fill="#FFEC19"/><rect width="2" height="2" x="312" y="6" fill="#FFEC19"/><rect width="2" height="2" x="870" y="6" fill="#FFEC19"/><rect width="2" height="2" x="324" y="6" fill="#FFEC19"/><rect width="2" height="2" x="882" y="6" fill="#FFEC19"/><rect width="2" height="2" x="336" y="6" fill="#FFEC19"/><rect width="2" height="2" x="894" y="6" fill="#FFEC19"/><rect width="2" height="2" x="348" y="6" fill="#FFEC19"/><rect width="2" height="2" x="906" y="6" fill="#FFEC19"/><rect width="2" height="2" x="360" y="6" fill="#FFEC19"/><rect width="2" height="2" x="918" y="6" fill="#FFEC19"/><rect width="2" height="2" x="372" y="6" fill="#FFEC19"/><rect width="2" height="2" x="930" y="6" fill="#FFEC19"/><rect width="2" height="2" x="384" y="6" fill="#FFEC19"/><rect width="2" height="2" x="942" y="6" fill="#FFEC19"/><rect width="2" height="2" x="396" y="6" fill="#FFEC19"/><rect width="2" height="2" x="954" y="6" fill="#FFEC19"/><rect width="2" height="2" x="408" y="6" fill="#FFEC19"/><rect width="2" height="2" x="966" y="6" fill="#FFEC19"/><rect width="2" height="2" x="420" y="6" fill="#FFEC19"/><rect width="2" height="2" x="978" y="6" fill="#FFEC19"/><rect width="2" height="2" x="432" y="6" fill="#FFEC19"/><rect width="2" height="2" x="990" y="6" fill="#FFEC19"/><rect width="2" height="2" x="444" y="6" fill="#FFEC19"/><rect width="2" height="2" x="1002" y="6" fill="#FFEC19"/><rect width="2" height="2" x="456" y="6" fill="#FFEC19"/><rect width="2" height="2" x="1014" y="6" fill="#FFEC19"/><rect width="2" height="2" x="468" y="6" fill="#FFEC19"/><rect width="2" height="2" x="1026" y="6" fill="#FFEC19"/><rect width="2" height="2" x="480" y="6" fill="#FFEC19"/><rect width="2" height="2" x="1038" y="6" fill="#FFEC19"/><rect width="2" height="2" x="492" y="6" fill="#FFEC19"/><rect width="2" height="2" x="1050" y="6" fill="#FFEC19"/><rect width="2" height="2" x="504" y="6" fill="#FFEC19"/><rect width="2" height="2" x="1062" y="6" fill="#FFEC19"/><rect width="2" height="2" x="516" y="6" fill="#FFEC19"/><rect width="2" height="2" x="1074" y="6" fill="#FFEC19"/><rect width="2" height="2" x="528" y="6" fill="#FFEC19"/><rect width="2" height="2" x="1086" y="6" fill="#FFEC19"/><rect width="2" height="2" x="540" y="6" fill="#FFEC19"/><rect width="2" height="2" x="1098" y="6" fill="#FFEC19"/><rect width="2" height="2" x="552" y="6" fill="#FFEC19"/><rect width="2" height="2" x="1110" y="6" fill="#FFEC19"/><rect width="2" height="2" x="564" y="6" fill="#FFEC19"/></svg>