<svg xmlns="http://www.w3.org/2000/svg" width="140" height="210" fill="none" viewBox="0 0 140 210"><path fill="#24F2FF" d="M50 40V50H30V40H50Z"/><path fill="#24F2FF" d="M30 50V70H20V50H30Z"/><path fill="#24F2FF" d="M50 170V180H30V170H50Z"/><path fill="#24F2FF" d="M30 170H20V150H30V170Z"/><path fill="#24F2FF" d="M50 60H60V70H50V60Z"/><path fill="#24F2FF" d="M40 80V70H50V80H40Z"/><path fill="#24F2FF" d="M40 80H30V120H40V80Z"/><path fill="#24F2FF" d="M50 150H40V140H50V150Z"/><path fill="#24F2FF" d="M80 150V160H50V150H80Z"/><path fill="#24F2FF" d="M80 150V120H90V150H80Z"/><path fill="#24F2FF" d="M40 140H30V130H40V140Z"/><path fill="#24F2FF" d="M60 120H70V130H60V120Z"/><path fill="#24F2FF" d="M60 90V120H50V90H60Z"/><path fill="#24F2FF" d="M80 90H60V80H80V90Z"/><path fill="#24F2FF" d="M80 110V90H90V110H80Z"/><path fill="#24F2FF" d="M90 70H100V80H90V70Z"/><path fill="#24F2FF" d="M90 70H70V60H90V70Z"/><path fill="#24F2FF" d="M100 80H110V90H100V80Z"/><path fill="#24F2FF" d="M100 100H110V130H100V100Z"/><path fill="#24F2FF" d="M110 40H90V50H110V70H120V50H110V40Z"/><path fill="#24F2FF" d="M90 170V180H110V170H120V150H110V170H90Z"/><path fill="#24F2FF" fill-rule="evenodd" d="M130 0H10V10H0V200H10V210H130V200H140V10H130V0ZM90 10H70V20H90V10ZM60 10H50V20H60V10ZM130 190V20H103.333V30H40V20H10V190H130Z" clip-rule="evenodd"/></svg>