<svg xmlns="http://www.w3.org/2000/svg" width="16" height="386" fill="none" viewBox="0 0 16 386"><rect width="2" height="2" y="6" fill="#24F2FF"/><rect width="2" height="2" x="2" y="4" fill="#24F2FF"/><rect width="2" height="2" x="4" y="2" fill="#24F2FF"/><rect width="2" height="2" x="6" fill="#24F2FF"/><rect width="2" height="2" fill="#24F2FF" transform="matrix(-1 0 0 1 16 12)"/><rect width="2" height="2" fill="#24F2FF" transform="matrix(-1 0 0 1 14 10)"/><rect width="2" height="2" fill="#24F2FF" transform="matrix(-1 0 0 1 12 8)"/><rect width="2" height="2" fill="#24F2FF" transform="matrix(-1 0 0 1 10 6)"/><rect width="2" height="2" y="198" fill="#24F2FF"/><rect width="2" height="2" x="2" y="196" fill="#24F2FF"/><rect width="2" height="2" x="4" y="194" fill="#24F2FF"/><rect width="2" height="2" x="6" y="192" fill="#24F2FF"/><rect width="2" height="2" fill="#24F2FF" transform="matrix(-1 0 0 1 16 204)"/><rect width="2" height="2" fill="#24F2FF" transform="matrix(-1 0 0 1 14 202)"/><rect width="2" height="2" fill="#24F2FF" transform="matrix(-1 0 0 1 12 200)"/><rect width="2" height="2" fill="#24F2FF" transform="matrix(-1 0 0 1 10 198)"/><rect width="2" height="2" y="102" fill="#24F2FF"/><rect width="2" height="2" x="2" y="100" fill="#24F2FF"/><rect width="2" height="2" x="4" y="98" fill="#24F2FF"/><rect width="2" height="2" x="6" y="96" fill="#24F2FF"/><rect width="2" height="2" fill="#24F2FF" transform="matrix(-1 0 0 1 16 108)"/><rect width="2" height="2" fill="#24F2FF" transform="matrix(-1 0 0 1 14 106)"/><rect width="2" height="2" fill="#24F2FF" transform="matrix(-1 0 0 1 12 104)"/><rect width="2" height="2" fill="#24F2FF" transform="matrix(-1 0 0 1 10 102)"/><rect width="2" height="2" y="294" fill="#24F2FF"/><rect width="2" height="2" x="2" y="292" fill="#24F2FF"/><rect width="2" height="2" x="4" y="290" fill="#24F2FF"/><rect width="2" height="2" x="6" y="288" fill="#24F2FF"/><rect width="2" height="2" fill="#24F2FF" transform="matrix(-1 0 0 1 16 300)"/><rect width="2" height="2" fill="#24F2FF" transform="matrix(-1 0 0 1 14 298)"/><rect width="2" height="2" fill="#24F2FF" transform="matrix(-1 0 0 1 12 296)"/><rect width="2" height="2" fill="#24F2FF" transform="matrix(-1 0 0 1 10 294)"/><rect width="2" height="2" y="54" fill="#24F2FF"/><rect width="2" height="2" x="2" y="52" fill="#24F2FF"/><rect width="2" height="2" x="4" y="50" fill="#24F2FF"/><rect width="2" height="2" x="6" y="48" fill="#24F2FF"/><rect width="2" height="2" fill="#24F2FF" transform="matrix(-1 0 0 1 16 60)"/><rect width="2" height="2" fill="#24F2FF" transform="matrix(-1 0 0 1 14 58)"/><rect width="2" height="2" fill="#24F2FF" transform="matrix(-1 0 0 1 12 56)"/><rect width="2" height="2" fill="#24F2FF" transform="matrix(-1 0 0 1 10 54)"/><rect width="2" height="2" y="246" fill="#24F2FF"/><rect width="2" height="2" x="2" y="244" fill="#24F2FF"/><rect width="2" height="2" x="4" y="242" fill="#24F2FF"/><rect width="2" height="2" x="6" y="240" fill="#24F2FF"/><rect width="2" height="2" fill="#24F2FF" transform="matrix(-1 0 0 1 16 252)"/><rect width="2" height="2" fill="#24F2FF" transform="matrix(-1 0 0 1 14 250)"/><rect width="2" height="2" fill="#24F2FF" transform="matrix(-1 0 0 1 12 248)"/><rect width="2" height="2" fill="#24F2FF" transform="matrix(-1 0 0 1 10 246)"/><rect width="2" height="2" y="150" fill="#24F2FF"/><rect width="2" height="2" x="2" y="148" fill="#24F2FF"/><rect width="2" height="2" x="4" y="146" fill="#24F2FF"/><rect width="2" height="2" x="6" y="144" fill="#24F2FF"/><rect width="2" height="2" fill="#24F2FF" transform="matrix(-1 0 0 1 16 156)"/><rect width="2" height="2" fill="#24F2FF" transform="matrix(-1 0 0 1 14 154)"/><rect width="2" height="2" fill="#24F2FF" transform="matrix(-1 0 0 1 12 152)"/><rect width="2" height="2" fill="#24F2FF" transform="matrix(-1 0 0 1 10 150)"/><rect width="2" height="2" y="342" fill="#24F2FF"/><rect width="2" height="2" x="2" y="340" fill="#24F2FF"/><rect width="2" height="2" x="4" y="338" fill="#24F2FF"/><rect width="2" height="2" x="6" y="336" fill="#24F2FF"/><rect width="2" height="2" fill="#24F2FF" transform="matrix(-1 0 0 1 16 348)"/><rect width="2" height="2" fill="#24F2FF" transform="matrix(-1 0 0 1 14 346)"/><rect width="2" height="2" fill="#24F2FF" transform="matrix(-1 0 0 1 12 344)"/><rect width="2" height="2" fill="#24F2FF" transform="matrix(-1 0 0 1 10 342)"/><rect width="2" height="2" y="30" fill="#24F2FF"/><rect width="2" height="2" x="2" y="28" fill="#24F2FF"/><rect width="2" height="2" x="4" y="26" fill="#24F2FF"/><rect width="2" height="2" x="6" y="24" fill="#24F2FF"/><rect width="2" height="2" fill="#24F2FF" transform="matrix(-1 0 0 1 16 36)"/><rect width="2" height="2" fill="#24F2FF" transform="matrix(-1 0 0 1 14 34)"/><rect width="2" height="2" fill="#24F2FF" transform="matrix(-1 0 0 1 12 32)"/><rect width="2" height="2" fill="#24F2FF" transform="matrix(-1 0 0 1 10 30)"/><rect width="2" height="2" y="222" fill="#24F2FF"/><rect width="2" height="2" x="2" y="220" fill="#24F2FF"/><rect width="2" height="2" x="4" y="218" fill="#24F2FF"/><rect width="2" height="2" x="6" y="216" fill="#24F2FF"/><rect width="2" height="2" fill="#24F2FF" transform="matrix(-1 0 0 1 16 228)"/><rect width="2" height="2" fill="#24F2FF" transform="matrix(-1 0 0 1 14 226)"/><rect width="2" height="2" fill="#24F2FF" transform="matrix(-1 0 0 1 12 224)"/><rect width="2" height="2" fill="#24F2FF" transform="matrix(-1 0 0 1 10 222)"/><rect width="2" height="2" y="126" fill="#24F2FF"/><rect width="2" height="2" x="2" y="124" fill="#24F2FF"/><rect width="2" height="2" x="4" y="122" fill="#24F2FF"/><rect width="2" height="2" x="6" y="120" fill="#24F2FF"/><rect width="2" height="2" fill="#24F2FF" transform="matrix(-1 0 0 1 16 132)"/><rect width="2" height="2" fill="#24F2FF" transform="matrix(-1 0 0 1 14 130)"/><rect width="2" height="2" fill="#24F2FF" transform="matrix(-1 0 0 1 12 128)"/><rect width="2" height="2" fill="#24F2FF" transform="matrix(-1 0 0 1 10 126)"/><rect width="2" height="2" y="318" fill="#24F2FF"/><rect width="2" height="2" x="2" y="316" fill="#24F2FF"/><rect width="2" height="2" x="4" y="314" fill="#24F2FF"/><rect width="2" height="2" x="6" y="312" fill="#24F2FF"/><rect width="2" height="2" fill="#24F2FF" transform="matrix(-1 0 0 1 16 324)"/><rect width="2" height="2" fill="#24F2FF" transform="matrix(-1 0 0 1 14 322)"/><rect width="2" height="2" fill="#24F2FF" transform="matrix(-1 0 0 1 12 320)"/><rect width="2" height="2" fill="#24F2FF" transform="matrix(-1 0 0 1 10 318)"/><rect width="2" height="2" y="78" fill="#24F2FF"/><rect width="2" height="2" x="2" y="76" fill="#24F2FF"/><rect width="2" height="2" x="4" y="74" fill="#24F2FF"/><rect width="2" height="2" x="6" y="72" fill="#24F2FF"/><rect width="2" height="2" fill="#24F2FF" transform="matrix(-1 0 0 1 16 84)"/><rect width="2" height="2" fill="#24F2FF" transform="matrix(-1 0 0 1 14 82)"/><rect width="2" height="2" fill="#24F2FF" transform="matrix(-1 0 0 1 12 80)"/><rect width="2" height="2" fill="#24F2FF" transform="matrix(-1 0 0 1 10 78)"/><rect width="2" height="2" y="270" fill="#24F2FF"/><rect width="2" height="2" x="2" y="268" fill="#24F2FF"/><rect width="2" height="2" x="4" y="266" fill="#24F2FF"/><rect width="2" height="2" x="6" y="264" fill="#24F2FF"/><rect width="2" height="2" fill="#24F2FF" transform="matrix(-1 0 0 1 16 276)"/><rect width="2" height="2" fill="#24F2FF" transform="matrix(-1 0 0 1 14 274)"/><rect width="2" height="2" fill="#24F2FF" transform="matrix(-1 0 0 1 12 272)"/><rect width="2" height="2" fill="#24F2FF" transform="matrix(-1 0 0 1 10 270)"/><rect width="2" height="2" y="174" fill="#24F2FF"/><rect width="2" height="2" x="2" y="172" fill="#24F2FF"/><rect width="2" height="2" x="4" y="170" fill="#24F2FF"/><rect width="2" height="2" x="6" y="168" fill="#24F2FF"/><rect width="2" height="2" fill="#24F2FF" transform="matrix(-1 0 0 1 16 180)"/><rect width="2" height="2" fill="#24F2FF" transform="matrix(-1 0 0 1 14 178)"/><rect width="2" height="2" fill="#24F2FF" transform="matrix(-1 0 0 1 12 176)"/><rect width="2" height="2" fill="#24F2FF" transform="matrix(-1 0 0 1 10 174)"/><rect width="2" height="2" y="366" fill="#24F2FF"/><rect width="2" height="2" x="2" y="364" fill="#24F2FF"/><rect width="2" height="2" x="4" y="362" fill="#24F2FF"/><rect width="2" height="2" x="6" y="360" fill="#24F2FF"/><rect width="2" height="2" fill="#24F2FF" transform="matrix(-1 0 0 1 16 372)"/><rect width="2" height="2" fill="#24F2FF" transform="matrix(-1 0 0 1 14 370)"/><rect width="2" height="2" fill="#24F2FF" transform="matrix(-1 0 0 1 12 368)"/><rect width="2" height="2" fill="#24F2FF" transform="matrix(-1 0 0 1 10 366)"/><rect width="2" height="2" y="18" fill="#24F2FF"/><rect width="2" height="2" x="2" y="16" fill="#24F2FF"/><rect width="2" height="2" x="4" y="14" fill="#24F2FF"/><rect width="2" height="2" x="6" y="12" fill="#24F2FF"/><rect width="2" height="2" fill="#24F2FF" transform="matrix(-1 0 0 1 16 24)"/><rect width="2" height="2" fill="#24F2FF" transform="matrix(-1 0 0 1 14 22)"/><rect width="2" height="2" fill="#24F2FF" transform="matrix(-1 0 0 1 12 20)"/><rect width="2" height="2" fill="#24F2FF" transform="matrix(-1 0 0 1 10 18)"/><rect width="2" height="2" y="210" fill="#24F2FF"/><rect width="2" height="2" x="2" y="208" fill="#24F2FF"/><rect width="2" height="2" x="4" y="206" fill="#24F2FF"/><rect width="2" height="2" x="6" y="204" fill="#24F2FF"/><rect width="2" height="2" fill="#24F2FF" transform="matrix(-1 0 0 1 16 216)"/><rect width="2" height="2" fill="#24F2FF" transform="matrix(-1 0 0 1 14 214)"/><rect width="2" height="2" fill="#24F2FF" transform="matrix(-1 0 0 1 12 212)"/><rect width="2" height="2" fill="#24F2FF" transform="matrix(-1 0 0 1 10 210)"/><rect width="2" height="2" y="114" fill="#24F2FF"/><rect width="2" height="2" x="2" y="112" fill="#24F2FF"/><rect width="2" height="2" x="4" y="110" fill="#24F2FF"/><rect width="2" height="2" x="6" y="108" fill="#24F2FF"/><rect width="2" height="2" fill="#24F2FF" transform="matrix(-1 0 0 1 16 120)"/><rect width="2" height="2" fill="#24F2FF" transform="matrix(-1 0 0 1 14 118)"/><rect width="2" height="2" fill="#24F2FF" transform="matrix(-1 0 0 1 12 116)"/><rect width="2" height="2" fill="#24F2FF" transform="matrix(-1 0 0 1 10 114)"/><rect width="2" height="2" y="306" fill="#24F2FF"/><rect width="2" height="2" x="2" y="304" fill="#24F2FF"/><rect width="2" height="2" x="4" y="302" fill="#24F2FF"/><rect width="2" height="2" x="6" y="300" fill="#24F2FF"/><rect width="2" height="2" fill="#24F2FF" transform="matrix(-1 0 0 1 16 312)"/><rect width="2" height="2" fill="#24F2FF" transform="matrix(-1 0 0 1 14 310)"/><rect width="2" height="2" fill="#24F2FF" transform="matrix(-1 0 0 1 12 308)"/><rect width="2" height="2" fill="#24F2FF" transform="matrix(-1 0 0 1 10 306)"/><rect width="2" height="2" y="66" fill="#24F2FF"/><rect width="2" height="2" x="2" y="64" fill="#24F2FF"/><rect width="2" height="2" x="4" y="62" fill="#24F2FF"/><rect width="2" height="2" x="6" y="60" fill="#24F2FF"/><rect width="2" height="2" fill="#24F2FF" transform="matrix(-1 0 0 1 16 72)"/><rect width="2" height="2" fill="#24F2FF" transform="matrix(-1 0 0 1 14 70)"/><rect width="2" height="2" fill="#24F2FF" transform="matrix(-1 0 0 1 12 68)"/><rect width="2" height="2" fill="#24F2FF" transform="matrix(-1 0 0 1 10 66)"/><rect width="2" height="2" y="258" fill="#24F2FF"/><rect width="2" height="2" x="2" y="256" fill="#24F2FF"/><rect width="2" height="2" x="4" y="254" fill="#24F2FF"/><rect width="2" height="2" x="6" y="252" fill="#24F2FF"/><rect width="2" height="2" fill="#24F2FF" transform="matrix(-1 0 0 1 16 264)"/><rect width="2" height="2" fill="#24F2FF" transform="matrix(-1 0 0 1 14 262)"/><rect width="2" height="2" fill="#24F2FF" transform="matrix(-1 0 0 1 12 260)"/><rect width="2" height="2" fill="#24F2FF" transform="matrix(-1 0 0 1 10 258)"/><rect width="2" height="2" y="162" fill="#24F2FF"/><rect width="2" height="2" x="2" y="160" fill="#24F2FF"/><rect width="2" height="2" x="4" y="158" fill="#24F2FF"/><rect width="2" height="2" x="6" y="156" fill="#24F2FF"/><rect width="2" height="2" fill="#24F2FF" transform="matrix(-1 0 0 1 16 168)"/><rect width="2" height="2" fill="#24F2FF" transform="matrix(-1 0 0 1 14 166)"/><rect width="2" height="2" fill="#24F2FF" transform="matrix(-1 0 0 1 12 164)"/><rect width="2" height="2" fill="#24F2FF" transform="matrix(-1 0 0 1 10 162)"/><rect width="2" height="2" y="354" fill="#24F2FF"/><rect width="2" height="2" x="2" y="352" fill="#24F2FF"/><rect width="2" height="2" x="4" y="350" fill="#24F2FF"/><rect width="2" height="2" x="6" y="348" fill="#24F2FF"/><rect width="2" height="2" fill="#24F2FF" transform="matrix(-1 0 0 1 16 360)"/><rect width="2" height="2" fill="#24F2FF" transform="matrix(-1 0 0 1 14 358)"/><rect width="2" height="2" fill="#24F2FF" transform="matrix(-1 0 0 1 12 356)"/><rect width="2" height="2" fill="#24F2FF" transform="matrix(-1 0 0 1 10 354)"/><rect width="2" height="2" y="42" fill="#24F2FF"/><rect width="2" height="2" x="2" y="40" fill="#24F2FF"/><rect width="2" height="2" x="4" y="38" fill="#24F2FF"/><rect width="2" height="2" x="6" y="36" fill="#24F2FF"/><rect width="2" height="2" fill="#24F2FF" transform="matrix(-1 0 0 1 16 48)"/><rect width="2" height="2" fill="#24F2FF" transform="matrix(-1 0 0 1 14 46)"/><rect width="2" height="2" fill="#24F2FF" transform="matrix(-1 0 0 1 12 44)"/><rect width="2" height="2" fill="#24F2FF" transform="matrix(-1 0 0 1 10 42)"/><rect width="2" height="2" y="234" fill="#24F2FF"/><rect width="2" height="2" x="2" y="232" fill="#24F2FF"/><rect width="2" height="2" x="4" y="230" fill="#24F2FF"/><rect width="2" height="2" x="6" y="228" fill="#24F2FF"/><rect width="2" height="2" fill="#24F2FF" transform="matrix(-1 0 0 1 16 240)"/><rect width="2" height="2" fill="#24F2FF" transform="matrix(-1 0 0 1 14 238)"/><rect width="2" height="2" fill="#24F2FF" transform="matrix(-1 0 0 1 12 236)"/><rect width="2" height="2" fill="#24F2FF" transform="matrix(-1 0 0 1 10 234)"/><rect width="2" height="2" y="138" fill="#24F2FF"/><rect width="2" height="2" x="2" y="136" fill="#24F2FF"/><rect width="2" height="2" x="4" y="134" fill="#24F2FF"/><rect width="2" height="2" x="6" y="132" fill="#24F2FF"/><rect width="2" height="2" fill="#24F2FF" transform="matrix(-1 0 0 1 16 144)"/><rect width="2" height="2" fill="#24F2FF" transform="matrix(-1 0 0 1 14 142)"/><rect width="2" height="2" fill="#24F2FF" transform="matrix(-1 0 0 1 12 140)"/><rect width="2" height="2" fill="#24F2FF" transform="matrix(-1 0 0 1 10 138)"/><rect width="2" height="2" y="330" fill="#24F2FF"/><rect width="2" height="2" x="2" y="328" fill="#24F2FF"/><rect width="2" height="2" x="4" y="326" fill="#24F2FF"/><rect width="2" height="2" x="6" y="324" fill="#24F2FF"/><rect width="2" height="2" fill="#24F2FF" transform="matrix(-1 0 0 1 16 336)"/><rect width="2" height="2" fill="#24F2FF" transform="matrix(-1 0 0 1 14 334)"/><rect width="2" height="2" fill="#24F2FF" transform="matrix(-1 0 0 1 12 332)"/><rect width="2" height="2" fill="#24F2FF" transform="matrix(-1 0 0 1 10 330)"/><rect width="2" height="2" y="90" fill="#24F2FF"/><rect width="2" height="2" x="2" y="88" fill="#24F2FF"/><rect width="2" height="2" x="4" y="86" fill="#24F2FF"/><rect width="2" height="2" x="6" y="84" fill="#24F2FF"/><rect width="2" height="2" fill="#24F2FF" transform="matrix(-1 0 0 1 16 96)"/><rect width="2" height="2" fill="#24F2FF" transform="matrix(-1 0 0 1 14 94)"/><rect width="2" height="2" fill="#24F2FF" transform="matrix(-1 0 0 1 12 92)"/><rect width="2" height="2" fill="#24F2FF" transform="matrix(-1 0 0 1 10 90)"/><rect width="2" height="2" y="282" fill="#24F2FF"/><rect width="2" height="2" x="2" y="280" fill="#24F2FF"/><rect width="2" height="2" x="4" y="278" fill="#24F2FF"/><rect width="2" height="2" x="6" y="276" fill="#24F2FF"/><rect width="2" height="2" fill="#24F2FF" transform="matrix(-1 0 0 1 16 288)"/><rect width="2" height="2" fill="#24F2FF" transform="matrix(-1 0 0 1 14 286)"/><rect width="2" height="2" fill="#24F2FF" transform="matrix(-1 0 0 1 12 284)"/><rect width="2" height="2" fill="#24F2FF" transform="matrix(-1 0 0 1 10 282)"/><rect width="2" height="2" y="186" fill="#24F2FF"/><rect width="2" height="2" x="2" y="184" fill="#24F2FF"/><rect width="2" height="2" x="4" y="182" fill="#24F2FF"/><rect width="2" height="2" x="6" y="180" fill="#24F2FF"/><rect width="2" height="2" fill="#24F2FF" transform="matrix(-1 0 0 1 16 192)"/><rect width="2" height="2" fill="#24F2FF" transform="matrix(-1 0 0 1 14 190)"/><rect width="2" height="2" fill="#24F2FF" transform="matrix(-1 0 0 1 12 188)"/><rect width="2" height="2" fill="#24F2FF" transform="matrix(-1 0 0 1 10 186)"/><rect width="2" height="2" y="378" fill="#24F2FF"/><rect width="2" height="2" x="2" y="376" fill="#24F2FF"/><rect width="2" height="2" x="4" y="374" fill="#24F2FF"/><rect width="2" height="2" x="6" y="372" fill="#24F2FF"/><rect width="2" height="2" fill="#24F2FF" transform="matrix(-1 0 0 1 16 384)"/><rect width="2" height="2" fill="#24F2FF" transform="matrix(-1 0 0 1 14 382)"/><rect width="2" height="2" fill="#24F2FF" transform="matrix(-1 0 0 1 12 380)"/><rect width="2" height="2" fill="#24F2FF" transform="matrix(-1 0 0 1 10 378)"/></svg>