<svg xmlns="http://www.w3.org/2000/svg" width="160" height="70" fill="none" viewBox="0 0 160 70"><rect width="10" height="10" x="10" y="10" fill="#FFEC19"/><rect width="10" height="10" x="50" y="10" fill="#FFEC19"/><rect width="10" height="10" fill="#FFEC19" transform="matrix(-1 0 0 1 160 10)"/><rect width="10" height="10" x="50" fill="#FFEC19"/><rect width="10" height="10" fill="#FFEC19" transform="matrix(-1 0 0 1 160 0)"/><rect width="10" height="10" x="10" y="20" fill="#FFEC19"/><rect width="10" height="10" x="50" y="20" fill="#FFEC19"/><rect width="10" height="10" fill="#FFEC19" transform="matrix(-1 0 0 1 160 20)"/><rect width="10" height="10" x="10" y="30" fill="#FFEC19"/><rect width="10" height="10" x="50" y="30" fill="#FFEC19"/><rect width="10" height="10" fill="#FFEC19" transform="matrix(-1 0 0 1 160 30)"/><rect width="10" height="10" x="90" y="30" fill="#FFEC19"/><rect width="10" height="10" fill="#FFEC19" transform="matrix(-1 0 0 1 120 30)"/><rect width="10" height="10" x="10" y="40" fill="#FFEC19"/><rect width="10" height="10" x="50" y="40" fill="#FFEC19"/><rect width="10" height="10" fill="#FFEC19" transform="matrix(-1 0 0 1 160 40)"/><rect width="10" height="10" x="90" y="40" fill="#FFEC19"/><rect width="10" height="10" fill="#FFEC19" transform="matrix(-1 0 0 1 120 40)"/><rect width="10" height="10" x="10" y="50" fill="#FFEC19"/><rect width="10" height="10" x="50" y="50" fill="#FFEC19"/><rect width="10" height="10" fill="#FFEC19" transform="matrix(-1 0 0 1 160 50)"/><rect width="10" height="10" x="90" y="50" fill="#FFEC19"/><rect width="10" height="10" fill="#FFEC19" transform="matrix(-1 0 0 1 120 50)"/><rect width="10" height="10" x="20" y="60" fill="#FFEC19"/><rect width="10" height="10" x="60" y="60" fill="#FFEC19"/><rect width="10" height="10" fill="#FFEC19" transform="matrix(-1 0 0 1 150 60)"/><rect width="10" height="10" x="60" y="20" fill="#FFEC19"/><rect width="10" height="10" fill="#FFEC19" transform="matrix(-1 0 0 1 150 20)"/><rect width="10" height="10" x="30" y="60" fill="#FFEC19"/><rect width="10" height="10" x="70" y="60" fill="#FFEC19"/><rect width="10" height="10" fill="#FFEC19" transform="matrix(-1 0 0 1 140 60)"/><rect width="10" height="10" x="70" y="20" fill="#FFEC19"/><rect width="10" height="10" fill="#FFEC19" transform="matrix(-1 0 0 1 140 20)"/><rect width="10" height="10" x="80" y="60" fill="#FFEC19"/><rect width="10" height="10" fill="#FFEC19" transform="matrix(-1 0 0 1 130 60)"/><rect width="10" height="10" x="80" y="20" fill="#FFEC19"/><rect width="10" height="10" fill="#FFEC19" transform="matrix(-1 0 0 1 130 20)"/><rect width="10" height="10" x="20" y="20" fill="#FFEC19"/><rect width="10" height="10" x="30" y="20" fill="#FFEC19"/><rect width="10" height="10" y="20" fill="#FFEC19"/></svg>